<svg id="svg" version="1.1" xmlns="http://www.w3.org/2000/svg" xmlns:xlink="http://www.w3.org/1999/xlink" width="400" height="360" viewBox="0, 0, 400,360"><g id="svgg"><path id="path0" d="M125.929 87.039 C 126.022 170.780,126.062 175.698,126.650 175.698 C 126.970 175.698,126.869 41.629,126.530 17.372 C 126.397 7.817,126.185 -0.000,126.060 -0.000 C 125.935 -0.000,125.876 39.167,125.929 87.039 M268.046 17.732 C 267.900 27.484,267.841 85.324,267.914 146.264 L 268.047 257.065 334.023 257.065 L 400.000 257.066 400.000 128.533 L 400.000 0.000 334.156 0.000 L 268.312 0.000 268.046 17.732 M126.445 206.013 C 125.987 206.470,125.780 254.601,126.231 255.776 C 126.834 257.346,126.913 254.468,126.913 230.963 C 126.913 217.003,126.905 205.581,126.895 205.581 C 126.885 205.581,126.682 205.775,126.445 206.013 " stroke="none" fill="#5cc3e3" fill-rule="evenodd"></path><path id="path1" d="M0.000 128.353 L 0.000 256.706 63.096 256.706 L 126.193 256.706 126.093 231.642 C 126.020 213.166,126.102 206.446,126.407 206.079 C 126.718 205.704,126.718 205.457,126.408 205.084 C 126.066 204.671,126.004 190.902,126.276 175.878 C 126.314 173.814,125.757 0.157,125.712 0.090 C 125.679 0.041,97.381 0.000,62.826 0.000 L 0.000 0.000 0.000 128.353 " stroke="none" fill="#3ba454" fill-rule="evenodd"></path><path id="path2" d="M127.993 257.484 C 127.003 257.615,97.799 257.737,63.096 257.754 L 0.000 257.786 0.000 308.911 L 0.000 360.036 200.000 360.036 L 400.000 360.036 400.000 308.971 L 400.000 257.905 302.160 257.646 C 151.277 257.247,129.931 257.227,127.993 257.484 M303.510 263.536 C 310.349 264.837,318.609 267.790,319.118 269.115 C 319.513 270.146,318.904 286.211,318.446 286.837 C 318.064 287.361,317.677 287.183,314.993 285.246 C 298.305 273.204,274.189 277.106,266.196 293.143 C 264.616 296.311,263.906 298.028,263.901 298.689 C 263.898 299.064,263.626 300.099,263.297 300.990 C 261.750 305.170,262.705 318.768,264.864 323.312 C 266.928 327.657,268.034 329.329,270.679 332.105 C 280.469 342.383,300.711 342.729,314.473 332.855 C 318.933 329.656,318.632 329.131,318.632 340.107 C 318.632 350.300,318.703 350.144,313.051 352.321 C 304.157 355.747,302.249 356.077,291.363 356.070 C 275.065 356.060,265.402 352.443,255.668 342.711 C 252.430 339.473,246.625 331.263,246.625 329.921 C 246.625 329.829,246.316 329.074,245.940 328.243 C 245.324 326.885,244.807 325.228,243.391 320.072 C 242.614 317.240,242.481 303.605,243.199 300.335 C 245.984 287.657,251.181 279.381,261.087 271.844 C 271.495 263.928,288.288 260.639,303.510 263.536 M132.984 265.200 C 133.496 266.073,134.343 268.087,135.545 271.287 C 136.066 272.673,136.631 274.131,136.801 274.527 C 136.971 274.923,137.869 277.273,138.797 279.748 C 139.725 282.223,140.712 284.678,140.989 285.204 C 141.267 285.730,141.499 286.459,141.506 286.824 C 141.512 287.190,141.755 287.803,142.046 288.188 C 142.336 288.572,142.580 289.139,142.586 289.448 C 142.593 289.756,142.912 290.657,143.294 291.449 C 143.677 292.241,143.995 293.009,144.002 293.155 C 144.009 293.301,145.242 296.541,146.743 300.355 C 148.243 304.170,149.774 308.101,150.145 309.091 C 150.750 310.707,152.304 314.716,156.146 324.572 C 156.841 326.355,157.715 328.623,158.089 329.613 C 158.463 330.603,159.985 334.532,161.472 338.343 C 162.960 342.154,164.182 345.476,164.188 345.724 C 164.194 345.972,164.437 346.489,164.728 346.873 C 165.019 347.258,165.258 347.825,165.259 348.134 C 165.260 348.442,165.474 349.104,165.735 349.603 C 168.219 354.362,168.396 354.275,156.225 354.275 L 145.837 354.275 144.938 352.385 C 144.443 351.346,143.487 349.037,142.813 347.255 C 139.312 337.994,138.757 336.603,138.329 336.013 C 137.662 335.096,105.059 334.821,104.061 335.724 C 103.726 336.027,102.917 337.935,102.263 339.965 C 101.608 341.994,100.852 344.165,100.581 344.789 C 100.311 345.413,100.090 346.198,100.090 346.535 C 100.090 346.871,99.865 347.656,99.589 348.280 C 99.313 348.904,98.897 350.144,98.663 351.035 C 97.772 354.434,98.253 354.301,87.246 354.191 L 77.588 354.095 77.631 352.835 C 77.676 351.511,78.489 348.993,79.393 347.379 C 79.687 346.854,79.933 346.206,79.940 345.939 C 79.947 345.673,80.265 344.806,80.648 344.014 C 81.031 343.222,81.350 342.412,81.357 342.214 C 81.365 342.016,81.871 340.639,82.483 339.154 C 83.094 337.669,83.808 335.806,84.069 335.014 C 84.330 334.221,84.862 332.763,85.252 331.773 C 85.642 330.783,86.469 328.596,87.092 326.913 C 87.714 325.230,88.373 323.528,88.557 323.132 C 88.901 322.390,90.247 318.869,91.515 315.392 C 91.912 314.302,92.465 312.953,92.743 312.392 C 93.022 311.831,93.249 311.229,93.249 311.053 C 93.249 310.878,93.987 308.825,94.889 306.492 C 99.651 294.170,100.357 292.323,101.811 288.389 C 102.214 287.300,103.229 284.626,104.067 282.448 C 104.906 280.270,106.122 277.111,106.769 275.428 C 107.417 273.744,108.375 271.233,108.899 269.847 C 111.027 264.220,109.792 264.852,119.172 264.592 C 130.562 264.277,132.493 264.362,132.984 265.200 M208.461 265.101 C 225.438 267.494,233.367 276.105,233.386 292.169 C 233.407 309.542,222.793 319.199,202.776 320.017 C 198.156 320.206,196.838 320.371,196.570 320.795 C 196.371 321.110,196.228 327.846,196.225 337.107 C 196.222 347.282,196.087 353.130,195.847 353.579 C 195.299 354.603,178.052 354.664,177.279 353.645 C 176.887 353.130,176.798 345.101,176.789 309.430 C 176.777 263.338,176.720 264.938,178.398 264.499 C 180.006 264.078,204.712 264.573,208.461 265.101 M196.592 279.724 C 196.192 280.473,196.059 302.695,196.447 304.140 C 197.135 306.711,207.702 304.359,210.826 300.939 C 214.399 297.028,214.501 287.010,211.009 282.852 C 208.498 279.861,197.765 277.533,196.592 279.724 M120.414 284.698 C 119.764 288.494,118.426 292.975,114.316 305.119 C 111.838 312.440,109.811 318.715,109.811 319.064 C 109.811 320.039,110.638 320.101,122.232 319.993 L 133.033 319.892 132.995 318.812 C 132.974 318.218,132.049 315.140,130.939 311.971 C 129.829 308.803,127.928 303.375,126.713 299.910 C 124.021 292.228,122.866 288.398,122.552 286.115 C 122.167 283.319,120.804 282.416,120.414 284.698 " stroke="none" fill="#db2e33" fill-rule="evenodd"></path><path id="path3" d="M126.651 87.039 C 126.704 134.910,126.834 174.462,126.939 174.932 C 127.112 175.713,127.261 175.768,128.641 175.569 C 129.473 175.449,132.988 175.102,136.454 174.798 C 139.919 174.495,143.888 174.086,145.275 173.889 C 146.661 173.693,149.901 173.379,152.475 173.192 C 162.130 172.489,162.099 172.503,177.650 161.816 C 180.348 159.962,180.623 159.856,182.725 159.856 C 185.961 159.856,186.079 159.652,186.716 152.958 C 187.503 144.694,188.186 133.319,188.042 130.873 C 187.972 129.685,187.596 124.231,187.207 118.753 C 186.817 113.275,186.499 107.280,186.499 105.432 C 186.500 102.040,185.846 94.539,184.856 86.589 C 184.367 82.655,184.020 75.063,183.805 63.546 C 183.760 61.170,183.599 58.626,183.447 57.892 C 183.207 56.741,183.326 56.321,184.311 54.834 C 185.405 53.182,185.449 52.976,185.373 49.811 C 185.286 46.176,186.101 44.587,188.297 44.105 C 188.805 43.993,189.423 43.576,189.672 43.177 C 190.909 41.197,192.195 38.554,192.420 37.533 C 192.564 36.876,193.463 35.567,194.535 34.454 C 195.561 33.389,196.691 32.087,197.047 31.560 C 197.402 31.034,198.015 30.603,198.409 30.603 C 199.041 30.603,200.553 29.884,203.722 28.076 C 204.249 27.776,205.119 27.087,205.654 26.546 C 206.742 25.447,207.292 25.327,207.881 26.059 C 208.600 26.953,210.094 27.064,210.806 26.277 C 211.162 25.884,211.630 25.560,211.847 25.556 C 212.064 25.552,212.954 25.066,213.826 24.476 C 214.697 23.885,215.643 23.402,215.929 23.402 C 216.214 23.402,216.855 23.083,217.351 22.692 C 217.848 22.301,218.846 21.875,219.568 21.744 C 220.291 21.614,221.179 21.354,221.542 21.166 C 222.040 20.909,222.541 21.060,223.589 21.786 C 224.841 22.654,225.238 22.737,227.673 22.635 C 229.881 22.543,230.501 22.641,231.094 23.178 C 231.644 23.675,232.431 23.839,234.356 23.857 C 237.212 23.884,237.177 23.848,237.582 27.170 C 237.892 29.706,238.728 29.756,241.105 27.379 C 243.494 24.990,245.242 25.257,244.730 27.934 C 244.541 28.926,245.166 29.581,247.040 30.354 C 247.764 30.653,248.463 31.236,248.595 31.651 C 248.874 32.532,249.960 33.202,250.668 32.931 C 250.940 32.826,251.762 32.991,252.494 33.297 C 253.873 33.873,255.878 33.451,256.493 32.456 C 256.926 31.755,257.827 32.428,257.565 33.256 C 257.217 34.357,253.747 40.302,252.252 42.359 C 251.554 43.319,250.424 45.250,249.741 46.649 C 249.059 48.049,247.852 49.943,247.060 50.858 C 244.722 53.560,244.224 55.302,245.117 57.664 C 246.051 60.136,248.093 59.987,249.540 57.342 C 249.965 56.566,251.176 55.916,251.533 56.273 C 251.771 56.512,250.577 60.182,250.045 60.846 C 249.617 61.379,245.936 67.571,244.800 69.667 C 244.478 70.261,244.101 71.233,243.962 71.827 C 243.823 72.421,243.232 74.071,242.647 75.493 C 241.464 78.370,241.356 79.416,242.136 80.447 C 242.907 81.467,242.791 82.477,241.628 84.842 C 241.059 86.000,240.152 88.245,239.614 89.829 C 239.076 91.413,238.092 93.535,237.427 94.545 C 236.282 96.283,235.528 97.998,234.689 100.777 C 234.485 101.452,232.819 104.935,230.986 108.518 C 226.210 117.855,221.474 127.043,219.184 131.413 C 209.969 148.997,202.681 163.656,202.452 165.066 C 202.288 166.078,202.458 166.424,203.718 167.636 C 206.086 169.916,206.611 173.625,204.870 175.775 C 204.319 176.455,204.241 177.015,204.401 179.133 C 204.603 181.796,204.003 183.778,202.861 184.215 C 202.487 184.359,202.340 185.020,202.340 186.555 C 202.340 188.479,201.668 190.641,200.904 191.179 C 200.352 191.567,199.820 192.987,199.820 194.069 C 199.820 194.694,199.485 195.631,199.077 196.151 C 198.277 197.168,198.304 201.416,199.143 206.389 C 199.334 207.527,199.640 209.761,199.821 211.353 C 200.003 212.945,200.395 215.092,200.692 216.125 C 203.132 224.590,203.810 228.389,203.309 230.783 L 202.820 233.123 200.510 234.249 C 198.870 235.049,197.870 235.324,197.062 235.197 C 196.436 235.100,195.220 235.277,194.361 235.592 C 190.069 237.165,177.680 236.026,173.250 233.652 C 172.523 233.262,171.742 232.943,171.514 232.943 C 171.286 232.943,170.839 232.545,170.519 232.057 C 170.183 231.544,169.336 231.009,168.504 230.785 C 167.715 230.572,166.892 230.068,166.676 229.663 C 166.459 229.259,165.282 228.479,164.059 227.930 C 159.227 225.760,158.226 223.216,160.882 219.853 C 164.520 215.248,172.316 202.294,171.704 201.873 C 171.623 201.817,170.666 201.393,169.577 200.930 C 168.488 200.468,166.422 199.543,164.985 198.875 C 162.258 197.606,161.000 197.440,158.596 198.031 C 157.804 198.226,155.698 198.628,153.915 198.925 C 149.887 199.596,146.299 200.431,140.054 202.149 C 137.381 202.885,134.221 203.710,133.033 203.983 C 131.845 204.257,129.982 204.768,128.893 205.120 L 126.913 205.761 126.913 230.952 L 126.913 256.144 127.813 256.600 C 128.532 256.964,142.750 257.039,198.380 256.971 L 268.047 256.886 268.047 128.443 L 268.047 0.000 197.300 0.000 L 126.553 -0.000 126.651 87.039 M287.129 262.857 C 282.229 263.159,275.057 264.663,272.007 266.028 C 259.191 271.765,251.875 278.930,246.421 291.089 C 240.469 304.359,243.053 328.228,251.397 337.061 C 251.644 337.321,252.434 338.268,253.154 339.164 C 256.665 343.537,262.636 348.342,267.486 350.697 C 269.181 351.519,270.997 352.418,271.523 352.694 C 272.048 352.970,272.753 353.195,273.088 353.195 C 273.424 353.195,274.209 353.429,274.833 353.716 C 275.457 354.002,276.940 354.423,278.128 354.650 C 279.316 354.878,280.936 355.204,281.728 355.374 C 289.756 357.101,308.042 354.822,314.851 351.247 C 315.446 350.935,316.120 350.679,316.350 350.677 C 316.580 350.676,317.187 350.177,317.700 349.567 L 318.632 348.460 318.632 339.868 C 318.632 329.794,318.820 330.153,314.916 332.780 C 306.546 338.410,301.512 340.002,291.989 340.032 C 271.403 340.097,259.894 325.612,262.830 303.330 C 263.372 299.219,264.023 297.192,266.187 292.889 C 273.339 278.666,294.467 273.212,309.991 281.582 C 310.288 281.742,311.181 282.201,311.976 282.601 C 312.771 283.002,314.386 284.146,315.565 285.143 C 318.131 287.312,318.380 287.282,318.696 284.759 C 319.046 281.954,319.171 269.528,318.854 269.015 C 317.669 267.097,304.686 263.356,297.930 262.986 C 296.148 262.888,293.879 262.764,292.889 262.710 C 291.899 262.657,289.307 262.722,287.129 262.857 M113.771 264.871 C 110.981 265.158,111.073 265.058,109.453 269.574 C 108.618 271.902,107.708 274.318,107.432 274.942 C 107.156 275.566,106.930 276.214,106.928 276.382 C 106.927 276.550,106.690 277.141,106.400 277.696 C 106.111 278.251,105.717 279.223,105.524 279.856 C 105.026 281.496,104.088 284.123,103.700 284.968 C 103.378 285.668,102.227 288.671,100.734 292.709 C 100.331 293.798,99.779 295.120,99.506 295.645 C 99.233 296.171,99.010 296.904,99.010 297.275 C 99.010 297.646,98.785 298.270,98.511 298.662 C 98.237 299.053,97.843 299.940,97.636 300.632 C 97.235 301.974,94.887 308.250,94.337 309.451 C 93.618 311.021,92.169 314.931,92.169 315.301 C 92.169 315.517,91.941 316.152,91.663 316.712 C 91.385 317.273,90.832 318.623,90.434 319.712 C 90.036 320.801,88.991 323.555,88.111 325.833 C 86.716 329.443,85.507 332.621,83.728 337.354 C 83.467 338.047,82.586 340.325,81.771 342.416 C 80.955 344.507,80.283 346.371,80.276 346.557 C 80.269 346.743,79.951 347.543,79.568 348.335 C 79.185 349.127,78.867 349.913,78.860 350.081 C 78.853 350.249,78.582 350.947,78.257 351.632 C 77.398 353.441,77.435 353.449,87.578 353.660 L 96.847 353.852 97.567 352.937 C 97.963 352.433,98.456 351.354,98.662 350.538 C 98.868 349.722,99.255 348.488,99.521 347.795 C 99.786 347.102,100.776 344.137,101.720 341.208 C 104.009 334.100,101.722 334.833,121.598 334.833 L 138.264 334.833 138.985 336.004 C 139.381 336.647,139.930 337.921,140.206 338.834 C 140.481 339.747,140.864 340.800,141.058 341.174 C 141.251 341.548,141.736 342.745,142.135 343.834 C 143.512 347.591,145.564 352.656,145.870 353.053 C 146.067 353.310,149.027 353.535,154.186 353.686 C 158.592 353.815,163.120 354.019,164.249 354.141 C 166.831 354.419,167.262 353.563,166.058 350.544 C 165.652 349.527,164.916 347.642,164.423 346.355 C 163.929 345.068,162.639 341.746,161.556 338.974 C 160.473 336.202,159.290 333.123,158.926 332.133 C 158.562 331.143,158.056 329.928,157.802 329.433 C 157.548 328.938,157.339 328.336,157.338 328.095 C 157.337 327.854,157.096 327.125,156.803 326.475 C 156.338 325.442,153.895 319.187,150.507 310.351 C 149.937 308.866,148.568 305.352,147.463 302.542 C 146.358 299.732,145.455 297.326,145.455 297.195 C 145.455 297.065,145.223 296.448,144.940 295.824 C 144.657 295.200,144.008 293.596,143.500 292.259 C 142.991 290.923,142.183 288.816,141.706 287.579 C 141.228 286.341,140.246 283.789,139.525 281.908 C 138.803 280.027,137.979 277.977,137.693 277.353 C 137.408 276.729,137.174 276.061,137.174 275.869 C 137.174 275.545,136.393 273.603,135.164 270.873 C 134.883 270.249,134.653 269.580,134.653 269.387 C 134.653 268.548,132.851 265.063,132.310 264.855 C 131.703 264.622,116.062 264.636,113.771 264.871 M178.358 264.979 C 177.253 265.426,177.303 262.776,177.498 309.811 L 177.678 353.375 185.419 353.680 C 195.759 354.088,195.190 354.106,195.739 353.355 C 196.122 352.831,196.221 349.491,196.225 336.835 C 196.228 328.110,196.360 320.768,196.519 320.518 C 196.712 320.213,198.530 319.954,202.022 319.733 C 215.488 318.879,222.863 315.872,228.120 309.091 C 235.225 299.927,235.166 283.668,227.995 274.470 C 225.805 271.661,218.120 266.831,215.745 266.771 C 215.402 266.762,214.473 266.515,213.681 266.223 C 210.168 264.924,181.034 263.898,178.358 264.979 M206.661 279.598 C 212.689 281.991,215.001 286.835,213.894 294.753 C 213.107 300.379,210.772 302.998,205.326 304.367 C 202.285 305.131,198.372 305.429,197.210 304.986 L 196.220 304.608 196.220 291.987 L 196.220 279.365 197.030 279.016 C 198.310 278.465,204.795 278.857,206.661 279.598 M122.757 285.057 C 123.183 287.529,124.365 291.941,124.951 293.249 C 125.129 293.645,125.759 295.428,126.352 297.210 C 127.612 300.995,131.505 312.165,132.563 315.032 C 133.531 317.650,133.812 320.056,133.160 320.120 C 131.193 320.314,109.925 319.942,109.680 319.709 C 109.508 319.545,110.199 316.949,111.230 313.892 C 112.253 310.855,113.235 307.885,113.411 307.291 C 113.587 306.697,114.788 303.132,116.081 299.370 C 118.763 291.562,119.728 288.255,120.071 285.689 C 120.418 283.102,120.573 282.691,121.259 282.535 C 122.219 282.316,122.311 282.472,122.757 285.057 " stroke="none" fill="#f5f6f6" fill-rule="evenodd"></path><path id="path4" d="M221.422 21.207 C 221.125 21.374,220.291 21.616,219.568 21.745 C 218.846 21.875,217.874 22.276,217.408 22.637 C 216.943 22.997,216.129 23.398,215.599 23.527 C 215.070 23.656,214.179 24.137,213.619 24.596 C 210.881 26.839,208.395 27.468,207.853 26.055 C 207.557 25.285,206.717 25.473,205.654 26.546 C 205.119 27.087,204.249 27.776,203.722 28.076 C 200.553 29.884,199.041 30.603,198.409 30.603 C 198.015 30.603,197.402 31.034,197.047 31.560 C 196.691 32.087,195.561 33.389,194.535 34.454 C 193.487 35.542,192.563 36.880,192.425 37.507 C 191.824 40.244,189.284 44.284,188.164 44.284 C 186.261 44.284,185.287 46.214,185.373 49.811 C 185.449 52.976,185.405 53.182,184.311 54.834 C 183.319 56.332,183.207 56.732,183.458 57.892 C 183.617 58.626,183.764 60.927,183.783 63.006 C 183.851 70.125,184.391 82.627,184.716 84.608 C 184.895 85.698,185.211 88.727,185.418 91.340 C 185.624 93.953,185.947 97.274,186.135 98.720 C 186.323 100.167,186.481 103.025,186.488 105.071 C 186.494 107.118,186.817 113.275,187.207 118.753 C 187.596 124.231,187.972 129.685,188.042 130.873 C 188.186 133.319,187.503 144.694,186.716 152.958 C 186.084 159.607,186.019 159.717,182.608 159.922 C 180.742 160.035,179.873 160.287,178.758 161.040 C 176.552 162.528,172.330 165.530,171.842 165.956 C 171.603 166.166,171.269 166.337,171.100 166.337 C 170.931 166.337,170.479 166.623,170.095 166.973 C 165.509 171.152,160.847 172.667,149.955 173.516 C 147.381 173.716,142.925 174.121,140.054 174.416 C 126.776 175.779,126.709 175.789,126.353 176.455 C 125.774 177.537,125.911 204.688,126.498 205.176 C 126.861 205.476,127.434 205.439,128.749 205.031 C 129.719 204.730,131.485 204.256,132.673 203.978 C 133.861 203.699,137.345 202.795,140.414 201.968 C 147.080 200.172,149.596 199.577,152.475 199.115 C 153.663 198.924,155.821 198.519,157.269 198.214 C 161.001 197.429,162.123 197.512,164.838 198.777 C 166.157 199.391,167.642 200.048,168.137 200.236 C 172.211 201.788,172.085 201.579,170.618 204.360 C 167.483 210.305,163.776 216.206,160.887 219.853 C 159.909 221.089,159.137 222.439,159.137 222.913 C 159.140 224.233,161.888 226.984,164.236 228.018 C 165.358 228.512,166.454 229.250,166.672 229.657 C 166.892 230.067,167.710 230.571,168.504 230.785 C 169.336 231.009,170.183 231.544,170.519 232.057 C 170.839 232.545,171.286 232.943,171.514 232.943 C 171.742 232.943,172.523 233.262,173.250 233.652 C 177.680 236.026,190.069 237.165,194.361 235.592 C 195.220 235.277,196.436 235.100,197.062 235.197 C 197.870 235.324,198.870 235.049,200.510 234.249 L 202.820 233.123 203.309 230.783 C 203.810 228.389,203.132 224.590,200.692 216.125 C 200.395 215.092,200.003 212.945,199.821 211.353 C 199.640 209.761,199.334 207.527,199.143 206.389 C 198.326 201.544,198.303 197.202,199.087 196.040 C 199.487 195.446,199.816 194.436,199.818 193.796 C 199.819 193.084,200.311 191.866,201.086 190.654 C 202.188 188.932,202.341 188.419,202.269 186.702 C 202.202 185.080,202.332 184.574,202.999 183.864 C 204.101 182.690,204.606 180.652,204.316 178.543 C 204.122 177.137,204.216 176.556,204.789 175.613 C 206.477 172.833,206.221 170.682,203.888 168.055 C 202.494 166.486,202.291 166.062,202.453 165.062 C 202.681 163.656,209.980 148.976,219.184 131.413 C 221.474 127.043,226.210 117.855,230.986 108.518 C 232.819 104.935,234.485 101.452,234.689 100.777 C 235.528 97.998,236.282 96.283,237.427 94.545 C 238.092 93.535,239.076 91.413,239.614 89.829 C 240.152 88.245,241.059 86.000,241.628 84.842 C 242.791 82.477,242.907 81.467,242.136 80.447 C 241.356 79.416,241.464 78.370,242.647 75.493 C 243.232 74.071,243.823 72.421,243.962 71.827 C 244.101 71.233,244.478 70.261,244.800 69.667 C 245.936 67.571,249.617 61.379,250.045 60.846 C 250.577 60.182,251.771 56.512,251.533 56.273 C 251.176 55.916,249.965 56.566,249.540 57.342 C 248.093 59.987,246.051 60.136,245.117 57.664 C 244.224 55.302,244.722 53.560,247.060 50.858 C 247.852 49.943,249.059 48.049,249.741 46.649 C 250.424 45.250,251.554 43.319,252.252 42.359 C 253.747 40.302,257.217 34.357,257.565 33.256 C 257.827 32.428,256.926 31.755,256.493 32.456 C 255.878 33.451,253.873 33.873,252.494 33.297 C 251.762 32.991,250.940 32.826,250.668 32.931 C 249.960 33.202,248.874 32.532,248.595 31.651 C 248.463 31.236,247.764 30.653,247.040 30.354 C 245.166 29.581,244.541 28.926,244.730 27.934 C 245.242 25.257,243.494 24.990,241.105 27.379 C 238.728 29.756,237.892 29.706,237.582 27.170 C 237.177 23.848,237.212 23.884,234.356 23.857 C 232.435 23.839,231.643 23.675,231.097 23.181 C 230.503 22.643,229.873 22.547,227.518 22.636 C 224.889 22.736,224.572 22.670,223.554 21.813 C 222.345 20.796,222.219 20.760,221.422 21.207 M63.276 256.616 C 7.364 256.697,0.000 256.770,0.000 257.247 C 0.000 257.818,122.140 258.104,127.484 257.546 L 129.780 257.306 128.526 256.853 C 127.837 256.604,127.111 256.428,126.913 256.462 C 126.715 256.496,98.078 256.565,63.276 256.616 M139.604 257.335 C 144.604 257.392,152.786 257.392,157.786 257.335 C 162.786 257.279,158.695 257.233,148.695 257.233 C 138.695 257.233,134.604 257.279,139.604 257.335 M174.707 257.335 C 177.628 257.395,182.408 257.395,185.329 257.335 C 188.249 257.274,185.860 257.225,180.018 257.225 C 174.176 257.225,171.787 257.274,174.707 257.335 M194.509 257.333 C 195.846 257.402,198.033 257.402,199.370 257.333 C 200.707 257.263,199.613 257.207,196.940 257.207 C 194.266 257.207,193.173 257.263,194.509 257.333 M240.144 257.445 C 300.803 257.841,400.000 257.829,400.000 257.426 C 400.000 257.186,367.135 257.090,301.980 257.137 C 228.082 257.192,212.865 257.267,240.144 257.445 M288.119 262.724 C 288.663 262.807,289.554 262.807,290.099 262.724 C 290.644 262.642,290.198 262.574,289.109 262.574 C 288.020 262.574,287.574 262.642,288.119 262.724 M292.986 262.727 C 293.633 262.807,294.605 262.806,295.146 262.724 C 295.687 262.641,295.158 262.576,293.969 262.578 C 292.781 262.580,292.339 262.647,292.986 262.727 M127.715 264.526 C 128.354 264.606,129.488 264.607,130.235 264.529 C 130.982 264.451,130.459 264.386,129.073 264.385 C 127.687 264.383,127.076 264.447,127.715 264.526 M178.398 264.519 C 176.721 264.911,176.777 263.337,176.789 309.430 C 176.798 345.101,176.887 353.130,177.279 353.645 C 177.711 354.215,178.516 354.270,185.638 354.221 C 191.112 354.182,192.805 354.085,191.179 353.903 C 189.892 353.758,186.378 353.621,183.370 353.597 C 180.361 353.574,177.812 353.412,177.703 353.236 C 177.303 352.589,177.465 265.595,177.867 265.193 C 178.117 264.942,182.318 264.739,189.846 264.614 L 201.440 264.422 190.279 264.386 C 184.140 264.366,178.794 264.426,178.398 264.519 M111.208 264.989 C 110.888 265.176,110.452 265.779,110.239 266.328 C 110.026 266.877,109.424 268.461,108.899 269.847 C 108.375 271.233,107.417 273.744,106.769 275.428 C 106.122 277.111,104.906 280.270,104.067 282.448 C 103.229 284.626,102.214 287.300,101.811 288.389 C 100.357 292.323,99.651 294.170,94.889 306.492 C 93.987 308.825,93.249 310.878,93.249 311.053 C 93.249 311.229,93.022 311.831,92.743 312.392 C 92.465 312.953,91.912 314.302,91.515 315.392 C 90.247 318.869,88.901 322.390,88.557 323.132 C 88.373 323.528,87.714 325.230,87.092 326.913 C 86.469 328.596,85.642 330.783,85.252 331.773 C 84.862 332.763,84.330 334.221,84.069 335.014 C 83.808 335.806,83.094 337.669,82.483 339.154 C 81.871 340.639,81.365 342.016,81.357 342.214 C 81.350 342.412,81.031 343.222,80.648 344.014 C 80.265 344.806,79.947 345.673,79.940 345.939 C 79.933 346.206,79.687 346.854,79.393 347.379 C 78.489 348.993,77.676 351.511,77.631 352.835 L 77.588 354.095 87.246 354.191 C 97.487 354.293,98.209 354.172,98.278 352.337 C 98.284 352.161,97.965 352.431,97.569 352.935 L 96.847 353.852 87.578 353.660 C 77.435 353.449,77.398 353.441,78.257 351.632 C 78.582 350.947,78.853 350.249,78.860 350.081 C 78.867 349.913,79.185 349.127,79.568 348.335 C 79.951 347.543,80.269 346.743,80.276 346.557 C 80.283 346.371,80.955 344.507,81.771 342.416 C 82.586 340.325,83.467 338.047,83.728 337.354 C 85.507 332.621,86.716 329.443,88.111 325.833 C 88.991 323.555,90.036 320.801,90.434 319.712 C 90.832 318.623,91.385 317.273,91.663 316.712 C 91.941 316.152,92.169 315.517,92.169 315.301 C 92.169 314.931,93.618 311.021,94.337 309.451 C 94.887 308.250,97.235 301.974,97.636 300.632 C 97.843 299.940,98.237 299.053,98.511 298.662 C 98.785 298.270,99.010 297.646,99.010 297.275 C 99.010 296.904,99.233 296.171,99.506 295.645 C 99.779 295.120,100.331 293.798,100.734 292.709 C 102.227 288.671,103.378 285.668,103.700 284.968 C 104.111 284.074,105.051 281.422,105.550 279.748 C 105.756 279.055,106.051 278.326,106.204 278.128 C 106.357 277.930,106.601 277.363,106.747 276.868 C 106.892 276.373,107.219 275.482,107.472 274.887 C 107.726 274.293,108.618 271.902,109.453 269.574 C 111.073 265.058,110.981 265.158,113.771 264.871 C 114.848 264.761,114.796 264.735,113.411 264.695 C 112.520 264.669,111.529 264.802,111.208 264.989 M203.695 264.881 C 204.142 264.967,204.790 264.964,205.135 264.874 C 205.479 264.784,205.113 264.713,204.320 264.717 C 203.528 264.721,203.247 264.795,203.695 264.881 M261.138 271.806 C 251.178 279.382,245.989 287.633,243.199 300.335 C 242.481 303.605,242.614 317.240,243.391 320.072 C 244.807 325.228,245.324 326.885,245.940 328.243 C 246.316 329.074,246.625 329.829,246.625 329.921 C 246.625 330.013,247.297 331.278,248.120 332.731 C 254.746 344.441,265.874 352.584,279.028 355.346 C 284.151 356.422,298.741 356.408,303.678 355.322 C 307.165 354.555,311.040 353.243,309.908 353.212 C 309.566 353.203,308.675 353.429,307.928 353.716 C 303.314 355.484,287.031 356.515,281.728 355.374 C 280.936 355.204,279.316 354.878,278.128 354.650 C 276.940 354.423,275.457 354.002,274.833 353.716 C 274.209 353.429,273.424 353.195,273.088 353.195 C 272.753 353.195,272.048 352.970,271.523 352.694 C 270.997 352.418,269.181 351.519,267.486 350.697 C 262.636 348.342,256.665 343.537,253.154 339.164 C 252.434 338.268,251.644 337.321,251.397 337.061 C 243.748 328.964,240.705 307.120,245.370 293.789 C 248.662 284.383,254.288 277.140,263.608 270.313 C 264.069 269.975,264.335 269.692,264.199 269.683 C 264.062 269.674,262.685 270.630,261.138 271.806 M319.095 273.087 C 319.098 274.077,319.167 274.440,319.250 273.892 C 319.333 273.345,319.331 272.535,319.245 272.092 C 319.160 271.649,319.092 272.097,319.095 273.087 M286.769 278.308 C 283.334 278.939,279.599 280.143,278.866 280.855 C 278.429 281.280,279.108 281.309,279.586 280.885 C 280.261 280.288,284.727 279.016,287.342 278.676 C 298.098 277.280,306.821 279.349,314.971 285.229 C 317.268 286.887,318.069 287.295,318.391 286.970 C 318.713 286.646,318.683 286.595,318.264 286.754 C 317.927 286.883,316.894 286.266,315.569 285.146 C 314.387 284.147,312.771 283.002,311.976 282.601 C 311.181 282.201,310.288 281.742,309.991 281.582 C 303.388 278.022,294.868 276.821,286.769 278.308 M200.720 279.003 C 210.279 279.824,213.321 282.832,213.321 291.459 C 213.321 297.284,212.912 298.698,210.482 301.260 C 209.684 302.102,209.194 302.790,209.393 302.790 C 209.885 302.790,212.115 300.344,212.854 298.995 C 213.901 297.082,214.400 292.052,213.886 288.594 C 212.923 282.123,208.976 279.074,201.260 278.840 L 197.480 278.725 200.720 279.003 M276.598 281.950 C 274.973 282.990,275.124 283.230,276.778 282.235 C 278.451 281.229,278.504 281.187,278.098 281.194 C 277.916 281.198,277.241 281.537,276.598 281.950 M121.259 282.535 C 120.629 282.678,120.019 283.956,120.399 284.336 C 120.516 284.453,120.612 284.278,120.612 283.948 C 120.612 282.133,122.257 283.970,122.552 286.115 C 122.866 288.398,124.021 292.228,126.713 299.910 C 134.342 321.682,133.937 319.796,131.053 320.103 L 129.073 320.315 130.873 320.368 C 133.912 320.458,134.210 319.516,132.561 315.032 C 131.472 312.072,127.583 300.907,126.352 297.210 C 125.759 295.428,125.129 293.645,124.951 293.249 C 124.365 291.941,123.183 287.529,122.757 285.057 C 122.311 282.472,122.219 282.316,121.259 282.535 M318.723 284.968 C 318.727 285.761,318.800 286.042,318.887 285.594 C 318.973 285.147,318.969 284.498,318.879 284.154 C 318.789 283.810,318.719 284.176,318.723 284.968 M233.394 292.169 C 233.398 292.961,233.472 293.243,233.558 292.795 C 233.644 292.347,233.641 291.699,233.551 291.355 C 233.461 291.011,233.390 291.377,233.394 292.169 M198.290 305.205 C 198.735 305.290,199.464 305.290,199.910 305.205 C 200.356 305.119,199.991 305.049,199.100 305.049 C 198.209 305.049,197.844 305.119,198.290 305.205 M218.542 316.449 C 216.241 317.794,209.196 319.283,203.060 319.720 L 198.920 320.014 203.780 319.898 C 209.715 319.757,216.630 318.264,219.072 316.597 C 219.851 316.065,219.409 315.942,218.542 316.449 M121.227 335.185 C 136.627 335.360,137.898 335.421,138.329 336.013 C 138.757 336.603,139.312 337.994,142.813 347.255 C 143.487 349.037,144.443 351.346,144.938 352.385 L 145.837 354.275 154.557 354.219 C 160.498 354.180,162.473 354.080,160.756 353.903 C 159.370 353.761,155.542 353.625,152.249 353.600 C 147.932 353.568,146.165 353.430,145.913 353.105 C 145.571 352.666,143.587 347.797,142.135 343.834 C 141.736 342.745,141.251 341.548,141.058 341.174 C 140.864 340.800,140.481 339.747,140.206 338.834 C 139.930 337.921,139.381 336.647,138.985 336.004 L 138.264 334.833 121.427 334.915 L 104.590 334.996 121.227 335.185 M290.279 340.139 C 291.220 340.213,292.759 340.213,293.699 340.139 C 294.640 340.064,293.870 340.004,291.989 340.004 C 290.108 340.004,289.338 340.064,290.279 340.139 M311.431 352.655 C 310.936 352.938,310.693 353.170,310.891 353.170 C 311.089 353.170,311.656 352.938,312.151 352.655 C 312.646 352.372,312.889 352.141,312.691 352.141 C 312.493 352.141,311.926 352.372,311.431 352.655 " stroke="none" fill="#936635" fill-rule="evenodd"></path></g></svg>