    <svg id="svg" version="1.1" xmlns="http://www.w3.org/2000/svg" xmlnsXlink="http://www.w3.org/1999/xlink" width="400"
        height="400" viewBox="0, 0, 400,400">
        <g id="svg">
            <path id="path0"
                d="M179.200 48.636 C 172.784 49.271,166.866 50.143,162.600 51.081 C 161.060 51.420,158.990 51.847,158.000 52.029 C 153.531 52.853,144.890 55.299,141.686 56.647 C 140.964 56.951,140.030 57.200,139.610 57.200 C 139.190 57.200,138.748 57.360,138.627 57.556 C 138.506 57.751,137.911 58.032,137.304 58.179 C 136.697 58.326,135.480 58.769,134.600 59.164 C 133.720 59.558,132.190 60.203,131.200 60.598 C 130.210 60.993,127.731 62.106,125.691 63.071 C 123.651 64.037,121.581 65.003,121.091 65.218 C 120.601 65.433,119.480 66.052,118.600 66.594 C 117.720 67.137,116.100 68.043,115.000 68.609 C 108.441 71.981,93.004 82.847,87.758 87.784 C 87.515 88.013,85.632 89.730,83.573 91.600 C 78.165 96.512,74.346 100.453,66.841 108.866 C 62.564 113.661,53.526 125.912,48.956 133.110 C 47.660 135.150,46.287 137.310,45.905 137.910 C 43.446 141.766,43.827 144.184,46.658 142.694 C 48.024 141.975,49.710 141.231,53.200 139.806 C 57.431 138.078,59.528 137.304,61.000 136.926 C 61.440 136.813,62.700 136.390,63.800 135.985 C 66.932 134.833,69.871 134.000,70.801 134.000 C 71.270 134.000,72.033 133.797,72.497 133.548 C 72.962 133.299,74.345 132.956,75.571 132.784 C 76.797 132.612,79.401 132.190,81.359 131.846 C 89.216 130.463,105.044 130.666,111.030 132.225 C 112.245 132.541,113.815 132.806,114.520 132.814 C 115.224 132.822,116.250 133.086,116.800 133.400 C 117.350 133.714,118.250 133.983,118.800 133.997 C 119.350 134.011,121.330 134.570,123.200 135.238 C 125.070 135.907,127.050 136.558,127.600 136.685 C 128.150 136.812,128.955 137.160,129.389 137.458 C 129.823 137.756,130.427 138.000,130.731 138.000 C 131.035 138.000,133.200 138.939,135.542 140.086 C 140.154 142.345,142.657 142.710,144.636 141.413 C 145.151 141.076,145.950 140.800,146.412 140.800 C 146.874 140.800,147.573 140.628,147.965 140.419 C 148.887 139.926,154.081 138.435,156.400 137.998 C 157.390 137.811,158.920 137.471,159.800 137.243 C 165.084 135.869,175.998 133.983,178.600 133.994 C 179.480 133.998,181.710 133.790,183.555 133.532 C 186.673 133.097,186.949 133.116,187.455 133.808 C 188.452 135.172,188.242 238.748,187.237 241.498 C 183.634 251.355,176.792 251.789,169.584 242.618 C 164.493 236.140,155.441 237.445,156.569 244.494 C 157.086 247.727,162.129 254.800,163.917 254.800 C 164.129 254.800,164.513 255.054,164.771 255.366 C 165.273 255.970,168.114 257.435,170.384 258.260 C 174.360 259.706,185.351 259.774,186.226 258.358 C 186.348 258.161,186.767 258.000,187.157 258.000 C 189.764 258.000,198.800 248.597,198.800 245.885 C 198.800 245.606,199.038 245.023,199.329 244.589 C 200.849 242.322,200.901 240.554,200.440 206.990 C 199.745 156.397,199.825 133.718,200.700 133.270 C 201.937 132.638,217.481 134.416,223.600 135.889 C 225.030 136.234,227.010 136.656,228.000 136.828 C 230.280 137.225,232.267 137.761,237.966 139.518 C 242.036 140.772,242.667 140.870,243.766 140.420 C 244.445 140.142,245.720 139.663,246.600 139.355 C 247.480 139.046,248.513 138.615,248.895 138.397 C 249.277 138.179,249.945 138.000,250.381 138.000 C 250.817 138.000,251.764 137.749,252.486 137.441 C 253.209 137.134,255.240 136.482,257.000 135.992 C 258.760 135.502,260.997 134.853,261.971 134.550 C 262.945 134.248,264.239 134.000,264.845 134.000 C 265.452 134.000,266.447 133.810,267.056 133.579 C 267.665 133.347,269.342 132.993,270.782 132.791 C 272.222 132.590,275.380 132.135,277.800 131.780 C 284.098 130.857,301.096 130.870,306.600 131.803 C 308.800 132.176,311.590 132.624,312.800 132.800 C 316.374 133.318,323.033 134.973,325.808 136.033 C 326.912 136.455,328.172 136.806,328.608 136.813 C 329.043 136.820,329.749 137.090,330.176 137.413 C 330.604 137.736,331.256 138.000,331.626 138.000 C 332.304 138.000,335.351 139.189,337.200 140.174 C 339.384 141.339,342.000 141.160,342.000 139.846 C 342.000 139.655,339.972 135.387,339.602 134.800 C 339.395 134.470,338.868 133.480,338.433 132.600 C 337.997 131.720,337.094 130.100,336.426 129.000 C 335.757 127.900,335.084 126.730,334.930 126.400 C 334.113 124.655,325.666 112.453,324.249 110.971 C 324.002 110.713,322.630 109.049,321.200 107.275 C 315.113 99.721,299.673 85.506,292.009 80.400 C 291.514 80.070,290.364 79.248,289.454 78.573 C 287.365 77.022,279.341 72.000,278.953 72.000 C 278.794 72.000,278.379 71.750,278.031 71.444 C 276.306 69.925,262.271 63.022,256.000 60.608 C 255.010 60.227,253.390 59.593,252.400 59.200 C 248.427 57.622,244.923 56.399,243.200 55.987 C 242.430 55.804,240.990 55.384,240.000 55.054 C 237.424 54.196,234.254 53.352,230.800 52.603 C 229.150 52.245,227.080 51.777,226.200 51.563 C 214.703 48.762,192.125 47.356,179.200 48.636 M208.400 51.408 C 212.030 51.745,216.080 52.209,217.400 52.440 C 224.678 53.712,227.109 54.210,232.200 55.468 C 238.468 57.017,240.143 57.511,245.600 59.421 C 247.690 60.153,249.897 60.873,250.504 61.020 C 251.111 61.168,251.706 61.449,251.827 61.644 C 251.948 61.840,252.324 62.000,252.663 62.000 C 253.002 62.000,253.936 62.294,254.740 62.653 C 255.543 63.012,257.010 63.653,258.000 64.078 C 263.820 66.574,273.085 71.251,277.380 73.862 C 279.495 75.148,281.625 76.434,282.113 76.719 C 284.208 77.945,288.251 80.685,291.573 83.130 C 307.133 94.581,321.225 109.411,330.441 124.034 C 335.693 132.368,336.000 132.879,336.000 133.283 C 336.000 133.498,336.360 134.131,336.800 134.691 C 338.345 136.655,337.438 137.718,335.128 136.650 C 332.679 135.517,328.560 134.124,324.800 133.157 C 323.810 132.902,322.640 132.552,322.200 132.378 C 321.760 132.205,319.690 131.690,317.600 131.235 C 298.303 127.031,277.061 127.792,257.000 133.406 C 253.304 134.440,248.206 136.066,247.505 136.435 C 245.110 137.694,244.011 136.677,244.011 133.200 C 244.010 131.213,243.354 127.849,241.554 120.600 C 240.898 117.960,240.205 115.170,240.014 114.400 C 239.496 112.318,236.992 105.557,235.823 103.085 C 235.260 101.896,234.800 100.732,234.800 100.500 C 234.800 100.267,234.170 98.962,233.400 97.600 C 232.630 96.238,232.000 94.966,232.000 94.774 C 232.000 94.582,231.100 92.901,230.000 91.038 C 228.900 89.176,228.000 87.559,228.000 87.446 C 228.000 87.170,221.510 77.585,219.440 74.804 C 214.729 68.474,210.369 63.437,201.952 54.600 C 198.730 51.217,198.417 50.348,200.524 50.627 C 201.226 50.720,204.770 51.072,208.400 51.408 M199.711 55.900 C 204.958 61.265,209.629 66.458,213.114 70.800 C 214.262 72.230,215.730 74.041,216.377 74.824 C 218.338 77.201,224.353 86.052,226.009 89.000 C 232.081 99.806,234.739 105.887,238.343 117.221 C 239.399 120.543,241.999 134.114,241.999 136.313 C 242.000 137.807,241.218 138.321,239.873 137.709 C 238.521 137.094,229.744 134.654,226.400 133.964 C 222.649 133.189,217.940 132.417,214.600 132.030 C 212.840 131.826,209.690 131.449,207.600 131.193 C 201.975 130.503,188.037 130.593,181.200 131.362 C 172.914 132.294,170.728 132.614,163.400 133.969 C 160.222 134.557,152.968 136.419,147.505 138.049 C 144.630 138.906,144.000 138.819,144.000 137.562 C 144.000 136.590,145.406 130.470,146.210 127.946 C 146.534 126.927,146.801 125.667,146.802 125.146 C 146.804 124.626,147.074 123.684,147.402 123.054 C 147.731 122.424,148.000 121.600,148.000 121.223 C 148.000 120.537,149.672 116.012,150.408 114.705 C 150.624 114.323,150.800 113.683,150.800 113.282 C 150.800 112.881,151.064 112.204,151.387 111.776 C 151.710 111.349,151.980 110.782,151.987 110.515 C 151.994 110.249,152.608 108.719,153.350 107.115 C 154.093 105.512,154.812 103.930,154.948 103.600 C 155.084 103.270,155.356 102.730,155.553 102.400 C 155.750 102.070,156.413 100.810,157.027 99.600 C 157.641 98.390,158.470 96.860,158.868 96.200 C 159.267 95.540,159.715 94.730,159.864 94.400 C 160.014 94.070,160.735 92.852,161.468 91.692 C 162.201 90.533,162.800 89.503,162.800 89.404 C 162.800 88.919,173.491 73.639,174.417 72.800 C 174.538 72.690,175.528 71.430,176.616 70.000 C 177.705 68.570,179.406 66.486,180.398 65.368 C 181.389 64.251,183.450 61.911,184.978 60.168 C 188.857 55.744,193.771 50.800,194.289 50.800 C 194.528 50.800,196.968 53.095,199.711 55.900 M188.400 51.544 C 188.400 51.733,187.815 52.514,187.100 53.280 C 186.385 54.045,184.720 55.887,183.400 57.373 C 182.080 58.859,180.308 60.823,179.462 61.737 C 178.616 62.652,177.457 64.030,176.885 64.800 C 176.313 65.570,175.641 66.380,175.391 66.600 C 174.715 67.196,166.800 77.531,166.800 77.818 C 166.800 77.954,166.170 78.834,165.400 79.774 C 164.630 80.714,164.000 81.618,164.000 81.784 C 164.000 81.949,163.489 82.741,162.864 83.542 C 162.240 84.344,161.205 85.945,160.564 87.100 C 159.924 88.254,159.265 89.199,159.100 89.200 C 158.935 89.200,158.800 89.560,158.800 90.000 C 158.800 90.440,158.635 90.800,158.433 90.800 C 158.232 90.800,157.503 91.925,156.815 93.300 C 155.381 96.164,155.104 96.694,154.461 97.800 C 153.959 98.664,152.235 102.223,151.845 103.200 C 151.713 103.530,151.435 104.070,151.228 104.400 C 151.020 104.730,150.373 106.080,149.790 107.400 C 149.207 108.720,148.566 110.113,148.365 110.495 C 148.164 110.877,148.000 111.517,148.000 111.918 C 148.000 112.319,147.736 112.996,147.413 113.424 C 147.090 113.851,146.820 114.659,146.813 115.220 C 146.806 115.781,146.580 116.460,146.311 116.729 C 145.792 117.248,144.548 121.134,144.048 123.800 C 143.883 124.680,143.534 125.793,143.274 126.274 C 143.013 126.754,142.800 127.708,142.800 128.394 C 142.800 129.079,142.553 130.126,142.252 130.720 C 141.951 131.314,141.586 132.700,141.441 133.800 C 140.806 138.634,140.757 138.800,139.965 138.800 C 139.544 138.800,139.200 138.640,139.200 138.443 C 139.200 138.247,138.707 137.963,138.104 137.812 C 137.501 137.660,136.916 137.410,136.804 137.256 C 136.692 137.102,135.250 136.453,133.600 135.815 C 131.950 135.176,130.429 134.507,130.220 134.327 C 130.011 134.147,129.588 134.000,129.280 134.000 C 128.973 134.000,128.154 133.751,127.460 133.448 C 125.303 132.502,121.472 131.265,119.800 130.974 C 118.920 130.821,118.020 130.564,117.800 130.402 C 117.580 130.241,116.332 129.989,115.026 129.842 C 113.721 129.696,112.450 129.408,112.203 129.202 C 109.921 127.309,81.120 127.394,77.429 129.305 C 77.005 129.524,75.655 129.847,74.429 130.022 C 71.601 130.427,67.467 131.412,65.400 132.175 C 64.520 132.499,63.395 132.773,62.900 132.782 C 62.405 132.792,62.000 132.966,62.000 133.168 C 62.000 133.371,61.415 133.651,60.700 133.792 C 59.985 133.932,59.040 134.197,58.600 134.381 C 58.160 134.565,56.900 135.031,55.800 135.416 C 54.700 135.802,53.028 136.474,52.085 136.910 C 50.345 137.714,49.511 137.592,50.214 136.637 C 50.426 136.349,51.493 134.783,52.584 133.157 C 53.675 131.530,54.667 130.110,54.788 130.000 C 54.909 129.890,55.527 129.000,56.162 128.021 C 56.796 127.043,57.469 126.053,57.657 125.821 C 58.086 125.291,60.800 121.551,61.600 120.388 C 62.237 119.462,69.095 110.901,69.789 110.165 C 70.015 109.926,71.730 108.044,73.600 105.983 C 77.644 101.526,81.757 97.438,86.400 93.259 C 88.270 91.577,89.890 90.089,90.000 89.952 C 91.437 88.173,110.378 74.400,111.389 74.400 C 111.534 74.400,112.227 73.962,112.928 73.427 C 113.630 72.893,114.653 72.253,115.202 72.007 C 115.751 71.760,116.920 71.129,117.800 70.605 C 118.680 70.080,120.210 69.258,121.200 68.778 C 122.190 68.298,123.270 67.746,123.600 67.552 C 123.930 67.357,124.650 67.012,125.200 66.784 C 125.750 66.557,127.280 65.850,128.600 65.213 C 132.834 63.170,134.639 62.400,135.226 62.387 C 135.542 62.380,136.149 62.110,136.576 61.787 C 137.004 61.464,137.664 61.200,138.044 61.200 C 138.424 61.200,139.245 60.950,139.868 60.644 C 141.276 59.953,143.328 59.245,145.342 58.753 C 146.190 58.546,147.396 58.112,148.022 57.789 C 148.648 57.465,149.599 57.200,150.134 57.200 C 150.670 57.200,151.624 56.931,152.254 56.602 C 152.884 56.274,153.963 56.004,154.651 56.002 C 155.339 56.001,156.509 55.752,157.251 55.448 C 157.993 55.145,159.648 54.770,160.929 54.616 C 162.209 54.462,163.869 54.080,164.616 53.768 C 165.363 53.455,166.835 53.194,167.887 53.186 C 168.939 53.178,170.880 52.911,172.200 52.592 C 173.520 52.273,176.220 51.989,178.200 51.959 C 180.180 51.930,182.970 51.775,184.400 51.614 C 188.307 51.175,188.400 51.173,188.400 51.544 M166.066 91.949 C 165.520 92.297,165.327 115.623,165.859 117.009 C 166.143 117.750,168.536 117.799,169.137 117.076 C 169.376 116.788,169.623 114.583,169.686 112.176 L 169.800 107.800 173.579 107.468 C 180.063 106.898,182.159 104.954,182.130 99.536 C 182.099 93.637,180.066 92.000,172.774 92.000 C 169.964 92.000,167.426 91.912,167.133 91.804 C 166.840 91.697,166.360 91.761,166.066 91.949 M209.936 92.038 C 209.512 92.302,209.418 115.860,209.836 116.950 C 210.137 117.734,212.592 117.848,213.076 117.100 C 213.254 116.825,213.490 114.620,213.600 112.200 L 213.800 107.800 217.400 107.495 C 223.037 107.017,225.065 105.614,225.965 101.569 C 226.858 97.555,224.809 92.857,221.883 92.212 C 220.536 91.915,210.372 91.767,209.936 92.038 M186.400 104.320 C 186.400 118.789,185.948 117.600,191.449 117.600 C 198.185 117.600,200.517 116.764,202.855 113.512 C 205.157 110.311,205.581 100.175,203.555 96.800 C 203.357 96.470,203.070 95.930,202.917 95.601 C 201.597 92.761,199.380 92.000,192.420 92.000 L 186.400 92.000 186.400 104.320 M175.358 95.984 C 178.212 97.069,178.946 100.144,176.833 102.169 C 175.435 103.508,170.626 104.201,169.966 103.158 C 169.555 102.510,169.471 96.263,169.867 95.867 C 170.270 95.463,174.210 95.547,175.358 95.984 M197.650 96.391 C 199.656 97.330,200.465 99.829,200.446 105.036 C 200.421 111.967,199.331 113.332,193.990 113.119 L 191.000 113.000 190.891 104.811 C 190.832 100.307,190.880 96.368,190.999 96.058 C 191.262 95.372,195.976 95.608,197.650 96.391 M219.358 95.984 C 224.281 97.856,222.359 103.318,216.758 103.372 L 213.800 103.400 213.683 100.033 C 213.618 98.182,213.658 96.427,213.770 96.133 C 214.014 95.498,217.814 95.397,219.358 95.984 "
                stroke="none" fill="#000802" fill-rule="evenodd"></path>
            <path id="path1"
                d="M0.000 200.000 L 0.000 400.000 200.000 400.000 L 400.000 400.000 400.000 200.000 L 400.000 0.000 200.000 0.000 L 0.000 0.000 0.000 200.000 M207.400 48.080 C 208.940 48.304,211.820 48.607,213.800 48.754 C 215.780 48.902,217.614 49.156,217.875 49.319 C 218.137 49.483,219.757 49.774,221.475 49.967 C 223.194 50.160,226.490 50.797,228.800 51.383 C 231.110 51.968,233.630 52.541,234.400 52.655 C 235.170 52.769,236.367 53.118,237.060 53.431 C 237.754 53.744,238.868 54.000,239.537 54.000 C 240.206 54.000,240.850 54.158,240.970 54.351 C 241.089 54.544,242.044 54.915,243.093 55.177 C 244.142 55.438,245.360 55.884,245.800 56.168 C 246.240 56.451,247.140 56.779,247.800 56.896 C 248.869 57.085,249.916 57.417,252.600 58.418 C 253.040 58.582,254.408 59.185,255.640 59.758 C 256.872 60.331,258.072 60.800,258.307 60.800 C 258.543 60.800,259.245 61.053,259.868 61.362 C 263.621 63.224,267.136 64.800,267.537 64.800 C 267.791 64.800,268.000 64.960,268.000 65.157 C 268.000 65.353,268.420 65.619,268.933 65.748 C 269.732 65.948,270.951 66.583,274.000 68.387 C 274.330 68.583,274.870 68.844,275.200 68.969 C 275.530 69.093,276.156 69.421,276.590 69.697 C 279.630 71.630,281.672 72.800,282.008 72.800 C 282.223 72.800,282.400 72.948,282.400 73.129 C 282.400 73.310,283.166 73.841,284.102 74.308 C 285.039 74.776,286.201 75.528,286.686 75.979 C 287.170 76.431,287.658 76.800,287.770 76.800 C 288.030 76.800,295.078 81.713,296.400 82.816 C 296.950 83.275,298.390 84.401,299.600 85.318 C 300.810 86.235,302.165 87.348,302.612 87.792 C 303.059 88.237,304.589 89.612,306.012 90.849 C 311.622 95.724,322.674 107.345,324.175 109.947 C 324.381 110.304,324.982 111.047,325.511 111.598 C 326.039 112.149,326.949 113.320,327.532 114.200 C 328.115 115.080,328.706 115.890,328.845 116.000 C 329.165 116.253,335.200 125.228,335.200 125.451 C 335.200 125.542,335.623 126.287,336.141 127.108 C 338.181 130.344,342.400 138.790,342.400 139.638 C 342.400 141.456,340.575 142.502,338.895 141.647 C 338.513 141.452,337.750 141.107,337.200 140.879 C 336.650 140.650,335.143 139.999,333.852 139.432 C 332.560 138.864,331.199 138.400,330.828 138.400 C 330.457 138.400,329.804 138.136,329.376 137.813 C 328.949 137.490,328.126 137.220,327.546 137.213 C 326.966 137.206,325.976 136.931,325.346 136.602 C 324.716 136.274,323.864 136.004,323.453 136.002 C 323.041 136.001,321.601 135.657,320.253 135.238 C 316.653 134.120,312.398 133.195,310.800 133.183 C 310.030 133.177,308.230 132.915,306.800 132.600 C 303.588 131.893,281.707 131.762,278.355 132.429 C 277.170 132.664,274.850 133.016,273.200 133.209 C 269.222 133.676,264.583 134.602,262.382 135.368 C 261.402 135.709,260.150 135.997,259.600 136.008 C 259.050 136.019,258.150 136.286,257.600 136.600 C 257.050 136.914,256.060 137.184,255.400 137.200 C 254.740 137.216,253.750 137.486,253.200 137.800 C 252.650 138.114,251.741 138.378,251.180 138.386 C 250.619 138.394,249.984 138.576,249.769 138.791 C 249.142 139.418,244.759 140.872,242.841 141.090 C 241.101 141.288,238.870 140.758,234.647 139.146 C 233.572 138.736,232.250 138.400,231.707 138.400 C 231.165 138.400,230.154 138.142,229.460 137.827 C 228.767 137.512,227.390 137.165,226.400 137.056 C 224.617 136.859,223.578 136.675,215.781 135.174 C 213.570 134.748,210.600 134.391,209.181 134.379 C 207.761 134.368,205.378 134.223,203.885 134.057 C 199.994 133.625,200.277 130.933,200.754 163.882 C 201.950 246.418,202.079 240.475,198.951 247.000 C 196.614 251.877,190.423 258.260,187.924 258.370 C 187.552 258.387,187.145 258.566,187.019 258.769 C 185.873 260.623,173.851 260.710,170.137 258.892 C 169.731 258.693,168.230 257.964,166.800 257.270 C 165.370 256.576,163.660 255.538,163.000 254.963 C 162.340 254.388,161.439 253.621,160.998 253.259 C 152.654 246.409,155.522 234.577,164.600 238.401 C 165.040 238.586,165.883 238.842,166.473 238.970 C 167.079 239.101,168.210 240.003,169.073 241.044 C 172.513 245.196,174.163 246.807,175.765 247.583 C 179.406 249.346,182.663 248.170,185.181 244.183 L 186.800 241.620 186.800 187.848 L 186.800 134.076 182.700 134.275 C 180.445 134.384,176.826 134.817,174.657 135.237 C 172.488 135.657,170.132 136.000,169.420 136.000 C 168.709 136.000,167.244 136.268,166.164 136.596 C 165.084 136.923,163.694 137.193,163.075 137.196 C 162.456 137.198,161.106 137.448,160.075 137.751 C 159.044 138.054,157.390 138.503,156.400 138.749 C 155.410 138.995,153.340 139.573,151.800 140.033 C 150.260 140.494,148.370 140.969,147.600 141.088 C 146.830 141.207,145.845 141.551,145.411 141.852 C 144.977 142.153,144.133 142.400,143.535 142.400 C 142.937 142.400,142.336 142.580,142.200 142.800 C 141.890 143.302,140.608 143.317,139.695 142.829 C 139.313 142.625,138.730 142.356,138.400 142.232 C 138.070 142.107,137.530 141.844,137.200 141.647 C 136.870 141.449,135.970 141.014,135.200 140.680 C 132.579 139.542,129.803 138.295,128.668 137.747 C 128.045 137.446,127.210 137.200,126.813 137.200 C 126.416 137.200,125.576 136.931,124.946 136.602 C 124.316 136.274,123.509 136.004,123.153 136.002 C 122.798 136.001,121.628 135.663,120.553 135.252 C 118.001 134.274,115.128 133.547,112.400 133.189 C 111.190 133.031,109.120 132.674,107.800 132.397 C 104.020 131.604,85.892 131.683,81.600 132.511 C 79.730 132.872,77.570 133.237,76.800 133.324 C 75.065 133.518,72.148 134.236,69.000 135.241 C 67.680 135.663,66.357 136.006,66.060 136.004 C 65.764 136.002,64.954 136.254,64.260 136.564 C 63.567 136.873,62.550 137.215,62.000 137.324 C 61.068 137.507,60.245 137.814,54.700 140.045 C 53.545 140.510,52.111 140.980,51.513 141.089 C 50.915 141.198,50.218 141.537,49.964 141.844 C 49.710 142.150,49.264 142.400,48.974 142.400 C 48.683 142.400,47.819 142.770,47.053 143.222 C 44.612 144.662,42.494 142.463,43.918 139.968 C 45.892 136.506,46.219 136.005,46.500 136.003 C 46.665 136.001,46.800 135.758,46.800 135.463 C 46.800 135.167,47.700 133.644,48.800 132.078 C 49.900 130.511,50.800 129.114,50.800 128.972 C 50.800 128.756,52.982 125.809,54.396 124.117 C 54.618 123.851,54.800 123.524,54.800 123.390 C 54.800 123.092,56.675 120.560,57.900 119.204 C 58.395 118.656,58.800 118.021,58.800 117.793 C 58.800 117.565,59.115 117.094,59.500 116.746 C 60.229 116.088,60.493 115.771,62.790 112.799 C 63.554 111.809,64.275 110.910,64.392 110.800 C 64.509 110.690,65.587 109.430,66.786 108.000 C 72.486 101.206,84.293 89.482,89.400 85.545 C 90.060 85.036,91.230 84.031,92.000 83.311 C 92.770 82.591,93.715 81.899,94.100 81.774 C 94.485 81.649,94.800 81.378,94.800 81.173 C 94.800 80.968,95.055 80.800,95.367 80.800 C 95.678 80.800,95.993 80.645,96.067 80.455 C 96.140 80.265,98.270 78.644,100.800 76.853 C 103.330 75.061,105.617 73.416,105.883 73.198 C 106.149 72.979,106.545 72.800,106.763 72.800 C 106.980 72.800,107.604 72.395,108.147 71.900 C 108.691 71.405,110.185 70.473,111.468 69.829 C 112.751 69.184,114.070 68.440,114.400 68.175 C 114.730 67.909,116.350 67.022,118.000 66.203 C 119.650 65.384,121.270 64.558,121.600 64.367 C 123.453 63.293,127.059 61.600,127.494 61.600 C 127.772 61.600,128.000 61.420,128.000 61.200 C 128.000 60.980,128.287 60.800,128.638 60.800 C 128.990 60.800,130.604 60.170,132.227 59.400 C 133.850 58.630,135.380 58.000,135.628 58.000 C 135.876 58.000,136.646 57.760,137.340 57.466 C 140.743 56.024,150.695 52.800,151.745 52.800 C 152.096 52.800,153.512 52.453,154.892 52.029 C 158.416 50.945,162.777 49.998,164.236 49.999 C 164.916 50.000,166.356 49.732,167.436 49.404 C 168.516 49.077,170.570 48.806,172.000 48.802 C 173.430 48.798,175.320 48.594,176.200 48.347 C 180.012 47.279,200.662 47.102,207.400 48.080 M192.151 53.340 C 191.518 54.077,189.355 56.462,187.345 58.640 C 184.110 62.144,180.827 65.941,176.688 70.963 C 175.352 72.584,171.265 78.033,168.259 82.200 C 166.153 85.120,162.000 91.763,162.000 92.212 C 162.000 92.391,161.743 92.821,161.429 93.169 C 161.115 93.516,159.924 95.600,158.781 97.800 C 157.639 100.000,156.374 102.430,155.971 103.200 C 155.568 103.970,154.883 105.410,154.450 106.400 C 154.017 107.390,153.147 109.370,152.516 110.800 C 151.886 112.230,151.037 114.480,150.629 115.800 C 150.222 117.120,149.733 118.560,149.544 119.000 C 148.607 121.180,147.494 124.772,147.313 126.200 C 147.201 127.080,146.970 127.980,146.800 128.200 C 146.629 128.420,146.362 129.590,146.206 130.800 C 146.050 132.010,145.650 133.853,145.317 134.895 C 144.422 137.694,145.805 138.959,147.780 137.148 C 147.989 136.957,148.567 136.800,149.065 136.800 C 149.563 136.800,150.927 136.442,152.096 136.005 C 154.354 135.160,156.736 134.587,160.537 133.977 C 161.823 133.770,163.083 133.470,163.337 133.310 C 163.592 133.149,164.790 132.901,166.000 132.757 C 167.210 132.613,169.639 132.199,171.397 131.836 C 182.362 129.573,208.795 129.596,218.989 131.877 C 220.535 132.223,222.700 132.652,223.800 132.830 C 224.900 133.007,227.060 133.442,228.600 133.796 C 230.140 134.151,232.210 134.612,233.200 134.822 C 234.190 135.032,235.720 135.496,236.600 135.853 C 238.751 136.727,240.766 137.179,240.977 136.837 C 241.330 136.266,239.673 124.338,239.170 123.820 C 238.966 123.611,238.800 122.919,238.800 122.283 C 238.800 121.647,238.366 119.838,237.836 118.263 C 237.305 116.688,236.562 114.320,236.184 113.000 C 235.806 111.680,235.340 110.429,235.149 110.220 C 234.957 110.011,234.800 109.538,234.800 109.168 C 234.800 108.799,234.333 107.440,233.761 106.148 C 233.190 104.857,232.454 103.170,232.127 102.400 C 230.928 99.586,227.392 92.596,227.100 92.467 C 226.935 92.393,226.800 92.183,226.800 91.998 C 226.800 91.814,225.900 90.212,224.800 88.439 C 223.700 86.665,222.800 85.116,222.800 84.996 C 222.800 84.767,216.941 76.531,216.218 75.744 C 215.988 75.494,215.440 74.788,215.000 74.177 C 214.153 72.999,210.875 68.898,210.200 68.172 C 209.980 67.935,208.450 66.232,206.800 64.387 C 204.184 61.463,198.892 55.810,196.082 52.938 C 194.789 51.617,193.519 51.747,192.151 53.340 M178.697 91.752 C 186.954 96.065,183.619 107.764,174.046 108.068 C 171.131 108.161,170.389 108.306,170.344 108.792 C 170.313 109.126,170.268 111.251,170.244 113.514 C 170.195 118.060,170.025 118.383,167.674 118.394 C 164.655 118.408,164.800 119.102,164.800 104.606 C 164.800 92.692,164.857 91.604,165.500 91.199 C 166.528 90.552,177.261 91.002,178.697 91.752 M197.126 91.181 C 199.643 91.545,203.200 93.720,203.200 94.895 C 203.200 95.138,203.439 95.621,203.731 95.969 C 206.466 99.219,206.471 110.024,203.738 113.231 C 203.442 113.579,203.200 114.066,203.200 114.314 C 203.200 117.031,189.590 120.023,186.400 118.009 C 185.790 117.623,185.234 94.322,185.783 92.129 C 186.115 90.803,191.435 90.358,197.126 91.181 M222.697 91.752 C 228.053 94.550,228.639 102.746,223.751 106.498 C 221.707 108.067,221.837 108.041,215.400 108.175 L 214.200 108.200 214.087 112.985 C 213.963 118.178,213.872 118.384,211.674 118.394 C 208.655 118.408,208.800 119.102,208.800 104.606 C 208.800 92.692,208.857 91.604,209.500 91.199 C 210.528 90.552,221.261 91.002,222.697 91.752 M170.400 99.600 L 170.400 102.800 172.420 102.800 C 175.015 102.800,176.658 101.958,176.987 100.458 C 177.612 97.612,176.297 96.400,172.581 96.400 L 170.400 96.400 170.400 99.600 M191.200 104.600 L 191.200 112.800 194.053 112.800 C 198.700 112.800,200.000 110.912,200.000 104.162 C 200.000 98.452,198.258 96.400,193.413 96.400 L 191.200 96.400 191.200 104.600 M214.167 96.942 C 214.052 97.240,214.013 98.635,214.079 100.042 L 214.200 102.600 216.158 102.724 C 219.781 102.954,221.511 101.462,220.969 98.576 C 220.608 96.653,214.812 95.261,214.167 96.942 "
                stroke="none" fill="#fbfbfb" fill-rule="evenodd"></path>
            <path id="path2"
                d="M199.076 50.929 C 198.981 51.188,200.276 52.840,201.952 54.600 C 210.369 63.437,214.729 68.474,219.440 74.804 C 221.510 77.585,228.000 87.170,228.000 87.446 C 228.000 87.559,228.900 89.176,230.000 91.038 C 231.100 92.901,232.000 94.582,232.000 94.774 C 232.000 94.966,232.630 96.238,233.400 97.600 C 234.170 98.962,234.800 100.267,234.800 100.500 C 234.800 100.732,235.260 101.896,235.823 103.085 C 236.992 105.557,239.496 112.318,240.014 114.400 C 240.205 115.170,240.898 117.960,241.554 120.600 C 243.354 127.849,244.010 131.213,244.011 133.200 C 244.011 136.677,245.110 137.694,247.505 136.435 C 248.206 136.066,253.304 134.440,257.000 133.406 C 277.061 127.792,298.303 127.031,317.600 131.235 C 319.690 131.690,321.760 132.205,322.200 132.378 C 322.640 132.552,323.810 132.902,324.800 133.157 C 328.560 134.124,332.679 135.517,335.128 136.650 C 337.438 137.718,338.345 136.655,336.800 134.691 C 336.360 134.131,336.000 133.498,336.000 133.283 C 336.000 132.879,335.693 132.368,330.441 124.034 C 323.681 113.308,314.989 103.251,303.200 92.512 C 297.743 87.541,287.513 79.880,282.113 76.719 C 281.625 76.434,279.495 75.148,277.380 73.862 C 273.085 71.251,263.820 66.574,258.000 64.078 C 257.010 63.653,255.543 63.012,254.740 62.653 C 253.936 62.294,253.002 62.000,252.663 62.000 C 252.324 62.000,251.948 61.840,251.827 61.644 C 251.706 61.449,251.111 61.168,250.504 61.020 C 249.897 60.873,247.690 60.153,245.600 59.421 C 240.143 57.511,238.468 57.017,232.200 55.468 C 227.109 54.210,224.678 53.712,217.400 52.440 C 216.080 52.209,212.030 51.745,208.400 51.408 C 204.770 51.072,201.226 50.720,200.524 50.627 C 199.767 50.527,199.178 50.650,199.076 50.929 "
                stroke="none" fill="#d30c04" fill-rule="evenodd"></path>
            <path id="path3"
                d="M183.600 47.591 C 180.410 47.760,177.080 48.101,176.200 48.347 C 175.320 48.594,173.430 48.798,172.000 48.802 C 170.570 48.806,168.516 49.077,167.436 49.404 C 166.356 49.732,164.916 50.000,164.236 49.999 C 162.777 49.998,158.416 50.945,154.892 52.029 C 153.512 52.453,152.096 52.800,151.745 52.800 C 150.695 52.800,140.743 56.024,137.340 57.466 C 136.646 57.760,135.876 58.000,135.628 58.000 C 135.380 58.000,133.850 58.630,132.227 59.400 C 130.604 60.170,128.990 60.800,128.638 60.800 C 128.287 60.800,128.000 60.980,128.000 61.200 C 128.000 61.420,127.772 61.600,127.494 61.600 C 127.059 61.600,123.453 63.293,121.600 64.367 C 121.270 64.558,119.650 65.384,118.000 66.203 C 116.350 67.022,114.730 67.909,114.400 68.175 C 114.070 68.440,112.751 69.184,111.468 69.829 C 110.185 70.473,108.691 71.405,108.147 71.900 C 107.604 72.395,106.980 72.800,106.763 72.800 C 106.545 72.800,106.149 72.979,105.883 73.198 C 105.617 73.416,103.330 75.061,100.800 76.853 C 98.270 78.644,96.140 80.265,96.067 80.455 C 95.993 80.645,95.678 80.800,95.367 80.800 C 95.055 80.800,94.800 80.968,94.800 81.173 C 94.800 81.378,94.485 81.649,94.100 81.774 C 93.715 81.899,92.770 82.591,92.000 83.311 C 91.230 84.031,90.060 85.036,89.400 85.545 C 84.293 89.482,72.486 101.206,66.786 108.000 C 65.587 109.430,64.509 110.690,64.392 110.800 C 64.275 110.910,63.554 111.809,62.790 112.799 C 60.493 115.771,60.229 116.088,59.500 116.746 C 59.115 117.094,58.800 117.565,58.800 117.793 C 58.800 118.021,58.395 118.656,57.900 119.204 C 56.675 120.560,54.800 123.092,54.800 123.390 C 54.800 123.524,54.618 123.851,54.396 124.117 C 52.982 125.809,50.800 128.756,50.800 128.972 C 50.800 129.114,49.900 130.511,48.800 132.078 C 47.700 133.644,46.800 135.167,46.800 135.463 C 46.800 135.758,46.665 136.001,46.500 136.003 C 46.219 136.005,45.892 136.506,43.918 139.968 C 42.494 142.463,44.612 144.662,47.053 143.222 C 47.819 142.770,48.683 142.400,48.974 142.400 C 49.264 142.400,49.710 142.150,49.964 141.844 C 50.218 141.537,50.915 141.198,51.513 141.089 C 52.111 140.980,53.545 140.510,54.700 140.045 C 60.245 137.814,61.068 137.507,62.000 137.324 C 62.550 137.215,63.567 136.873,64.260 136.564 C 64.954 136.254,65.764 136.002,66.060 136.004 C 66.357 136.006,67.680 135.663,69.000 135.241 C 72.148 134.236,75.065 133.518,76.800 133.324 C 77.570 133.237,79.730 132.872,81.600 132.511 C 85.892 131.683,104.020 131.604,107.800 132.397 C 109.120 132.674,111.190 133.031,112.400 133.189 C 115.128 133.547,118.001 134.274,120.553 135.252 C 121.628 135.663,122.798 136.001,123.153 136.002 C 123.509 136.004,124.316 136.274,124.946 136.602 C 125.576 136.931,126.416 137.200,126.813 137.200 C 127.210 137.200,128.045 137.446,128.668 137.747 C 129.803 138.295,132.579 139.542,135.200 140.680 C 135.970 141.014,136.870 141.449,137.200 141.647 C 137.530 141.844,138.070 142.107,138.400 142.232 C 138.730 142.356,139.313 142.625,139.695 142.829 C 140.608 143.317,141.890 143.302,142.200 142.800 C 142.336 142.580,142.937 142.400,143.535 142.400 C 144.133 142.400,144.977 142.153,145.411 141.852 C 145.845 141.551,146.830 141.207,147.600 141.088 C 148.370 140.969,150.260 140.494,151.800 140.033 C 153.340 139.573,155.410 138.995,156.400 138.749 C 157.390 138.503,159.044 138.054,160.075 137.751 C 161.106 137.448,162.456 137.198,163.075 137.196 C 163.694 137.193,165.084 136.923,166.164 136.596 C 167.244 136.268,168.709 136.000,169.420 136.000 C 170.132 136.000,172.488 135.657,174.657 135.237 C 176.826 134.817,180.445 134.384,182.700 134.275 L 186.800 134.076 186.800 187.848 L 186.800 241.620 185.181 244.183 C 182.663 248.170,179.406 249.346,175.765 247.583 C 174.163 246.807,172.513 245.196,169.073 241.044 C 168.210 240.003,167.079 239.101,166.473 238.970 C 165.883 238.842,165.040 238.586,164.600 238.401 C 155.522 234.577,152.654 246.409,160.998 253.259 C 161.439 253.621,162.340 254.388,163.000 254.963 C 163.660 255.538,165.370 256.576,166.800 257.270 C 168.230 257.964,169.731 258.693,170.137 258.892 C 173.851 260.710,185.873 260.623,187.019 258.769 C 187.145 258.566,187.552 258.387,187.924 258.370 C 190.423 258.260,196.614 251.877,198.951 247.000 C 202.079 240.475,201.950 246.418,200.754 163.882 C 200.277 130.933,199.994 133.625,203.885 134.057 C 205.378 134.223,207.761 134.368,209.181 134.379 C 210.600 134.391,213.570 134.748,215.781 135.174 C 223.578 136.675,224.617 136.859,226.400 137.056 C 227.390 137.165,228.767 137.512,229.460 137.827 C 230.154 138.142,231.165 138.400,231.707 138.400 C 232.250 138.400,233.572 138.736,234.647 139.146 C 238.870 140.758,241.101 141.288,242.841 141.090 C 244.759 140.872,249.142 139.418,249.769 138.791 C 249.984 138.576,250.619 138.394,251.180 138.386 C 251.741 138.378,252.650 138.114,253.200 137.800 C 253.750 137.486,254.740 137.216,255.400 137.200 C 256.060 137.184,257.050 136.914,257.600 136.600 C 258.150 136.286,259.050 136.019,259.600 136.008 C 260.150 135.997,261.402 135.709,262.382 135.368 C 264.583 134.602,269.222 133.676,273.200 133.209 C 274.850 133.016,277.170 132.664,278.355 132.429 C 281.707 131.762,303.588 131.893,306.800 132.600 C 308.230 132.915,310.030 133.177,310.800 133.183 C 312.398 133.195,316.653 134.120,320.253 135.238 C 321.601 135.657,323.041 136.001,323.453 136.002 C 323.864 136.004,324.716 136.274,325.346 136.602 C 325.976 136.931,326.966 137.206,327.546 137.213 C 328.126 137.220,328.949 137.490,329.376 137.813 C 329.804 138.136,330.457 138.400,330.828 138.400 C 331.199 138.400,332.560 138.864,333.852 139.432 C 335.143 139.999,336.650 140.650,337.200 140.879 C 337.750 141.107,338.513 141.452,338.895 141.647 C 340.575 142.502,342.400 141.456,342.400 139.638 C 342.400 138.790,338.181 130.344,336.141 127.108 C 335.623 126.287,335.200 125.542,335.200 125.451 C 335.200 125.228,329.165 116.253,328.845 116.000 C 328.706 115.890,328.115 115.080,327.532 114.200 C 326.949 113.320,326.039 112.149,325.511 111.598 C 324.982 111.047,324.381 110.304,324.175 109.947 C 322.674 107.345,311.622 95.724,306.012 90.849 C 304.589 89.612,303.059 88.237,302.612 87.792 C 302.165 87.348,300.810 86.235,299.600 85.318 C 298.390 84.401,296.950 83.275,296.400 82.816 C 295.078 81.713,288.030 76.800,287.770 76.800 C 287.658 76.800,287.170 76.431,286.686 75.979 C 286.201 75.528,285.039 74.776,284.102 74.308 C 283.166 73.841,282.400 73.310,282.400 73.129 C 282.400 72.948,282.223 72.800,282.008 72.800 C 281.672 72.800,279.630 71.630,276.590 69.697 C 276.156 69.421,275.530 69.093,275.200 68.969 C 274.870 68.844,274.330 68.583,274.000 68.387 C 270.951 66.583,269.732 65.948,268.933 65.748 C 268.420 65.619,268.000 65.353,268.000 65.157 C 268.000 64.960,267.791 64.800,267.537 64.800 C 267.136 64.800,263.621 63.224,259.868 61.362 C 259.245 61.053,258.543 60.800,258.307 60.800 C 258.072 60.800,256.872 60.331,255.640 59.758 C 254.408 59.185,253.040 58.582,252.600 58.418 C 249.916 57.417,248.869 57.085,247.800 56.896 C 247.140 56.779,246.240 56.451,245.800 56.168 C 245.360 55.884,244.142 55.438,243.093 55.177 C 242.044 54.915,241.089 54.544,240.970 54.351 C 240.850 54.158,240.206 54.000,239.537 54.000 C 238.868 54.000,237.754 53.744,237.060 53.431 C 236.367 53.118,235.170 52.769,234.400 52.655 C 233.630 52.541,231.110 51.968,228.800 51.383 C 226.490 50.797,223.194 50.160,221.475 49.967 C 219.757 49.774,218.137 49.483,217.875 49.319 C 217.614 49.156,215.780 48.902,213.800 48.754 C 211.820 48.607,208.940 48.304,207.400 48.080 C 203.385 47.497,190.385 47.230,183.600 47.591 M209.200 48.953 C 214.926 49.552,223.087 50.805,226.200 51.563 C 227.080 51.777,229.150 52.245,230.800 52.603 C 234.254 53.352,237.424 54.196,240.000 55.054 C 240.990 55.384,242.430 55.804,243.200 55.987 C 244.923 56.399,248.427 57.622,252.400 59.200 C 253.390 59.593,255.010 60.227,256.000 60.608 C 260.807 62.458,266.723 65.242,273.800 68.985 C 275.780 70.032,277.684 71.138,278.031 71.444 C 278.379 71.750,278.794 72.000,278.953 72.000 C 279.341 72.000,287.365 77.022,289.454 78.573 C 290.364 79.248,291.514 80.070,292.009 80.400 C 299.673 85.506,315.113 99.721,321.200 107.275 C 322.630 109.049,324.002 110.713,324.249 110.971 C 325.666 112.453,334.113 124.655,334.930 126.400 C 335.084 126.730,335.757 127.900,336.426 129.000 C 337.094 130.100,337.997 131.720,338.433 132.600 C 338.868 133.480,339.395 134.470,339.602 134.800 C 339.972 135.387,342.000 139.655,342.000 139.846 C 342.000 141.160,339.384 141.339,337.200 140.174 C 335.351 139.189,332.304 138.000,331.626 138.000 C 331.256 138.000,330.604 137.736,330.176 137.413 C 329.749 137.090,329.043 136.820,328.608 136.813 C 328.172 136.806,326.912 136.455,325.808 136.033 C 323.033 134.973,316.374 133.318,312.800 132.800 C 311.590 132.624,308.800 132.176,306.600 131.803 C 301.096 130.870,284.098 130.857,277.800 131.780 C 275.380 132.135,272.222 132.590,270.782 132.791 C 269.342 132.993,267.665 133.347,267.056 133.579 C 266.447 133.810,265.452 134.000,264.845 134.000 C 264.239 134.000,262.945 134.248,261.971 134.550 C 260.997 134.853,258.760 135.502,257.000 135.992 C 255.240 136.482,253.209 137.134,252.486 137.441 C 251.764 137.749,250.817 138.000,250.381 138.000 C 249.945 138.000,249.277 138.179,248.895 138.397 C 248.513 138.615,247.480 139.046,246.600 139.355 C 245.720 139.663,244.445 140.142,243.766 140.420 C 242.667 140.870,242.036 140.772,237.966 139.518 C 232.267 137.761,230.280 137.225,228.000 136.828 C 227.010 136.656,225.030 136.234,223.600 135.889 C 217.481 134.416,201.937 132.638,200.700 133.270 C 199.825 133.718,199.745 156.397,200.440 206.990 C 200.901 240.554,200.849 242.322,199.329 244.589 C 199.038 245.023,198.800 245.606,198.800 245.885 C 198.800 248.597,189.764 258.000,187.157 258.000 C 186.767 258.000,186.348 258.161,186.226 258.358 C 185.351 259.774,174.360 259.706,170.384 258.260 C 168.114 257.435,165.273 255.970,164.771 255.366 C 164.513 255.054,164.129 254.800,163.917 254.800 C 162.129 254.800,157.086 247.727,156.569 244.494 C 155.441 237.445,164.493 236.140,169.584 242.618 C 176.792 251.789,183.634 251.355,187.237 241.498 C 188.242 238.748,188.452 135.172,187.455 133.808 C 186.949 133.116,186.673 133.097,183.555 133.532 C 181.710 133.790,179.480 133.998,178.600 133.994 C 175.998 133.983,165.084 135.869,159.800 137.243 C 158.920 137.471,157.390 137.811,156.400 137.998 C 154.081 138.435,148.887 139.926,147.965 140.419 C 147.573 140.628,146.874 140.800,146.412 140.800 C 145.950 140.800,145.151 141.076,144.636 141.413 C 142.657 142.710,140.154 142.345,135.542 140.086 C 133.200 138.939,131.035 138.000,130.731 138.000 C 130.427 138.000,129.823 137.756,129.389 137.458 C 128.955 137.160,128.150 136.812,127.600 136.685 C 127.050 136.558,125.070 135.907,123.200 135.238 C 121.330 134.570,119.350 134.011,118.800 133.997 C 118.250 133.983,117.350 133.714,116.800 133.400 C 116.250 133.086,115.224 132.822,114.520 132.814 C 113.815 132.806,112.245 132.541,111.030 132.225 C 105.044 130.666,89.216 130.463,81.359 131.846 C 79.401 132.190,76.797 132.612,75.571 132.784 C 74.345 132.956,72.962 133.299,72.497 133.548 C 72.033 133.797,71.270 134.000,70.801 134.000 C 69.871 134.000,66.932 134.833,63.800 135.985 C 62.700 136.390,61.440 136.813,61.000 136.926 C 59.528 137.304,57.431 138.078,53.200 139.806 C 49.710 141.231,48.024 141.975,46.658 142.694 C 43.827 144.184,43.446 141.766,45.905 137.910 C 46.287 137.310,47.660 135.150,48.956 133.110 C 53.526 125.912,62.564 113.661,66.841 108.866 C 74.346 100.453,78.165 96.512,83.573 91.600 C 85.632 89.730,87.515 88.013,87.758 87.784 C 93.004 82.847,108.441 71.981,115.000 68.609 C 116.100 68.043,117.720 67.137,118.600 66.594 C 119.480 66.052,120.601 65.433,121.091 65.218 C 121.581 65.003,123.651 64.037,125.691 63.071 C 127.731 62.106,130.210 60.993,131.200 60.598 C 132.190 60.203,133.720 59.558,134.600 59.164 C 135.480 58.769,136.697 58.326,137.304 58.179 C 137.911 58.032,138.506 57.751,138.627 57.556 C 138.748 57.360,139.190 57.200,139.610 57.200 C 140.030 57.200,140.964 56.951,141.686 56.647 C 144.890 55.299,153.531 52.853,158.000 52.029 C 158.990 51.847,161.060 51.420,162.600 51.081 C 175.696 48.201,193.997 47.365,209.200 48.953 M190.805 53.900 C 189.128 55.605,186.506 58.426,184.978 60.168 C 183.450 61.911,181.389 64.251,180.398 65.368 C 179.406 66.486,177.705 68.570,176.616 70.000 C 175.528 71.430,174.538 72.690,174.417 72.800 C 173.491 73.639,162.800 88.919,162.800 89.404 C 162.800 89.503,162.201 90.533,161.468 91.692 C 160.735 92.852,160.014 94.070,159.864 94.400 C 159.715 94.730,159.267 95.540,158.868 96.200 C 158.470 96.860,157.641 98.390,157.027 99.600 C 156.413 100.810,155.750 102.070,155.553 102.400 C 155.356 102.730,155.084 103.270,154.948 103.600 C 154.812 103.930,154.093 105.512,153.350 107.115 C 152.608 108.719,151.994 110.249,151.987 110.515 C 151.980 110.782,151.710 111.349,151.387 111.776 C 151.064 112.204,150.800 112.881,150.800 113.282 C 150.800 113.683,150.624 114.323,150.408 114.705 C 149.672 116.012,148.000 120.537,148.000 121.223 C 148.000 121.600,147.731 122.424,147.402 123.054 C 147.074 123.684,146.804 124.626,146.802 125.146 C 146.801 125.667,146.534 126.927,146.210 127.946 C 145.406 130.470,144.000 136.590,144.000 137.562 C 144.000 138.819,144.630 138.906,147.505 138.049 C 155.976 135.521,161.067 134.325,169.200 132.951 C 181.923 130.802,198.297 130.053,207.600 131.193 C 209.690 131.449,212.840 131.826,214.600 132.030 C 217.940 132.417,222.649 133.189,226.400 133.964 C 229.744 134.654,238.521 137.094,239.873 137.709 C 241.218 138.321,242.000 137.807,241.999 136.313 C 241.999 134.114,239.399 120.543,238.343 117.221 C 234.739 105.887,232.081 99.806,226.009 89.000 C 224.353 86.052,218.338 77.201,216.377 74.824 C 215.730 74.041,214.262 72.230,213.114 70.800 C 207.861 64.255,195.196 50.800,194.289 50.800 C 194.050 50.800,192.482 52.195,190.805 53.900 M196.082 52.938 C 198.892 55.810,204.184 61.463,206.800 64.387 C 208.450 66.232,209.980 67.935,210.200 68.172 C 210.875 68.898,214.153 72.999,215.000 74.177 C 215.440 74.788,215.988 75.494,216.218 75.744 C 216.941 76.531,222.800 84.767,222.800 84.996 C 222.800 85.116,223.700 86.665,224.800 88.439 C 225.900 90.212,226.800 91.814,226.800 91.998 C 226.800 92.183,226.935 92.393,227.100 92.467 C 227.392 92.596,230.928 99.586,232.127 102.400 C 232.454 103.170,233.190 104.857,233.761 106.148 C 234.333 107.440,234.800 108.799,234.800 109.168 C 234.800 109.538,234.957 110.011,235.149 110.220 C 235.340 110.429,235.806 111.680,236.184 113.000 C 236.562 114.320,237.305 116.688,237.836 118.263 C 238.366 119.838,238.800 121.647,238.800 122.283 C 238.800 122.919,238.966 123.611,239.170 123.820 C 239.673 124.338,241.330 136.266,240.977 136.837 C 240.766 137.179,238.751 136.727,236.600 135.853 C 235.720 135.496,234.190 135.032,233.200 134.822 C 232.210 134.612,230.140 134.151,228.600 133.796 C 227.060 133.442,224.900 133.007,223.800 132.830 C 222.700 132.652,220.535 132.223,218.989 131.877 C 208.795 129.596,182.362 129.573,171.397 131.836 C 169.639 132.199,167.210 132.613,166.000 132.757 C 164.790 132.901,163.592 133.149,163.337 133.310 C 163.083 133.470,161.823 133.770,160.537 133.977 C 156.736 134.587,154.354 135.160,152.096 136.005 C 150.927 136.442,149.563 136.800,149.065 136.800 C 148.567 136.800,147.989 136.957,147.780 137.148 C 145.805 138.959,144.422 137.694,145.317 134.895 C 145.650 133.853,146.050 132.010,146.206 130.800 C 146.362 129.590,146.629 128.420,146.800 128.200 C 146.970 127.980,147.201 127.080,147.313 126.200 C 147.494 124.772,148.607 121.180,149.544 119.000 C 149.733 118.560,150.222 117.120,150.629 115.800 C 151.037 114.480,151.886 112.230,152.516 110.800 C 153.147 109.370,154.017 107.390,154.450 106.400 C 154.883 105.410,155.568 103.970,155.971 103.200 C 156.374 102.430,157.639 100.000,158.781 97.800 C 159.924 95.600,161.115 93.516,161.429 93.169 C 161.743 92.821,162.000 92.391,162.000 92.212 C 162.000 91.763,166.153 85.120,168.259 82.200 C 171.265 78.033,175.352 72.584,176.688 70.963 C 180.827 65.941,184.110 62.144,187.345 58.640 C 189.355 56.462,191.518 54.077,192.151 53.340 C 193.519 51.747,194.789 51.617,196.082 52.938 M165.500 91.199 C 164.857 91.604,164.800 92.692,164.800 104.606 C 164.800 119.102,164.655 118.408,167.674 118.394 C 170.025 118.383,170.195 118.060,170.244 113.514 C 170.268 111.251,170.313 109.126,170.344 108.792 C 170.389 108.306,171.131 108.161,174.046 108.068 C 183.619 107.764,186.954 96.065,178.697 91.752 C 177.261 91.002,166.528 90.552,165.500 91.199 M186.700 91.076 C 185.615 91.359,185.557 92.179,185.682 105.315 C 185.820 119.740,185.205 118.385,191.615 118.394 C 197.550 118.402,203.200 116.412,203.200 114.314 C 203.200 114.066,203.442 113.579,203.738 113.231 C 206.471 110.024,206.466 99.219,203.731 95.969 C 203.439 95.621,203.200 95.138,203.200 94.895 C 203.200 93.720,199.643 91.545,197.126 91.181 C 194.557 90.810,187.973 90.743,186.700 91.076 M209.500 91.199 C 208.857 91.604,208.800 92.692,208.800 104.606 C 208.800 119.102,208.655 118.408,211.674 118.394 C 213.872 118.384,213.963 118.178,214.087 112.985 L 214.200 108.200 215.400 108.175 C 221.837 108.041,221.707 108.067,223.751 106.498 C 228.639 102.746,228.053 94.550,222.697 91.752 C 221.261 91.002,210.528 90.552,209.500 91.199 M172.774 92.000 C 180.066 92.000,182.099 93.637,182.130 99.536 C 182.159 104.954,180.063 106.898,173.579 107.468 L 169.800 107.800 169.686 112.176 C 169.559 117.009,169.310 117.600,167.394 117.600 C 165.595 117.600,165.638 117.917,165.582 104.353 C 165.531 91.885,165.610 91.245,167.133 91.804 C 167.426 91.912,169.964 92.000,172.774 92.000 M221.883 92.212 C 224.809 92.857,226.858 97.555,225.965 101.569 C 225.065 105.614,223.037 107.017,217.400 107.495 L 213.800 107.800 213.600 112.200 C 213.490 114.620,213.254 116.825,213.076 117.100 C 212.592 117.848,210.137 117.734,209.836 116.950 C 209.418 115.860,209.512 92.302,209.936 92.038 C 210.372 91.767,220.536 91.915,221.883 92.212 M199.679 92.641 C 201.036 93.343,202.481 94.664,202.917 95.601 C 203.070 95.930,203.357 96.470,203.555 96.800 C 205.581 100.175,205.157 110.311,202.855 113.512 C 200.517 116.764,198.185 117.600,191.449 117.600 C 185.948 117.600,186.400 118.789,186.400 104.320 L 186.400 92.000 192.420 92.000 C 197.159 92.000,198.703 92.136,199.679 92.641 M169.867 95.867 C 169.471 96.263,169.555 102.510,169.966 103.158 C 170.626 104.201,175.435 103.508,176.833 102.169 C 178.946 100.144,178.212 97.069,175.358 95.984 C 174.210 95.547,170.270 95.463,169.867 95.867 M190.999 96.058 C 190.880 96.368,190.832 100.307,190.891 104.811 L 191.000 113.000 193.990 113.119 C 199.331 113.332,200.421 111.967,200.446 105.036 C 200.465 99.829,199.656 97.330,197.650 96.391 C 195.976 95.608,191.262 95.372,190.999 96.058 M213.770 96.133 C 213.658 96.427,213.618 98.182,213.683 100.033 L 213.800 103.400 216.758 103.372 C 222.359 103.318,224.281 97.856,219.358 95.984 C 217.814 95.397,214.014 95.498,213.770 96.133 M175.750 96.850 C 179.215 98.429,176.768 102.800,172.420 102.800 L 170.400 102.800 170.400 99.600 L 170.400 96.400 172.581 96.400 C 173.781 96.400,175.207 96.603,175.750 96.850 M196.948 96.952 C 200.548 98.457,201.376 108.060,198.197 111.431 C 196.961 112.741,196.783 112.800,194.053 112.800 L 191.200 112.800 191.200 104.600 L 191.200 96.400 193.413 96.400 C 194.630 96.400,196.221 96.649,196.948 96.952 M219.501 96.825 C 223.445 98.200,220.718 103.014,216.158 102.724 L 214.200 102.600 214.079 100.042 C 213.901 96.264,215.377 95.388,219.501 96.825 "
                stroke="none" fill="#989796" fill-rule="evenodd"></path>
            <path id="path4"
                d="M184.400 51.614 C 182.970 51.775,180.180 51.930,178.200 51.959 C 176.220 51.989,173.520 52.273,172.200 52.592 C 170.880 52.911,168.939 53.178,167.887 53.186 C 166.835 53.194,165.363 53.455,164.616 53.768 C 163.869 54.080,162.209 54.462,160.929 54.616 C 159.648 54.770,157.993 55.145,157.251 55.448 C 156.509 55.752,155.339 56.001,154.651 56.002 C 153.963 56.004,152.884 56.274,152.254 56.602 C 151.624 56.931,150.670 57.200,150.134 57.200 C 149.599 57.200,148.648 57.465,148.022 57.789 C 147.396 58.112,146.190 58.546,145.342 58.753 C 143.328 59.245,141.276 59.953,139.868 60.644 C 139.245 60.950,138.424 61.200,138.044 61.200 C 137.664 61.200,137.004 61.464,136.576 61.787 C 136.149 62.110,135.542 62.380,135.226 62.387 C 134.639 62.400,132.834 63.170,128.600 65.213 C 127.280 65.850,125.750 66.557,125.200 66.784 C 124.650 67.012,123.930 67.357,123.600 67.552 C 123.270 67.746,122.190 68.298,121.200 68.778 C 120.210 69.258,118.680 70.080,117.800 70.605 C 116.920 71.129,115.751 71.760,115.202 72.007 C 114.653 72.253,113.630 72.893,112.928 73.427 C 112.227 73.962,111.534 74.400,111.389 74.400 C 110.378 74.400,91.437 88.173,90.000 89.952 C 89.890 90.089,88.270 91.577,86.400 93.259 C 81.757 97.438,77.644 101.526,73.600 105.983 C 71.730 108.044,70.015 109.926,69.789 110.165 C 69.095 110.901,62.237 119.462,61.600 120.388 C 60.800 121.551,58.086 125.291,57.657 125.821 C 57.469 126.053,56.796 127.043,56.162 128.021 C 55.527 129.000,54.909 129.890,54.788 130.000 C 54.667 130.110,53.675 131.530,52.584 133.157 C 51.493 134.783,50.426 136.349,50.214 136.637 C 49.511 137.592,50.345 137.714,52.085 136.910 C 53.028 136.474,54.700 135.802,55.800 135.416 C 56.900 135.031,58.160 134.565,58.600 134.381 C 59.040 134.197,59.985 133.932,60.700 133.792 C 61.415 133.651,62.000 133.371,62.000 133.168 C 62.000 132.966,62.405 132.792,62.900 132.782 C 63.395 132.773,64.520 132.499,65.400 132.175 C 67.467 131.412,71.601 130.427,74.429 130.022 C 75.655 129.847,77.005 129.524,77.429 129.305 C 81.120 127.394,109.921 127.309,112.203 129.202 C 112.450 129.408,113.721 129.696,115.026 129.842 C 116.332 129.989,117.580 130.241,117.800 130.402 C 118.020 130.564,118.920 130.821,119.800 130.974 C 121.472 131.265,125.303 132.502,127.460 133.448 C 128.154 133.751,128.973 134.000,129.280 134.000 C 129.588 134.000,130.011 134.147,130.220 134.327 C 130.429 134.507,131.950 135.176,133.600 135.815 C 135.250 136.453,136.692 137.102,136.804 137.256 C 136.916 137.410,137.501 137.660,138.104 137.812 C 138.707 137.963,139.200 138.247,139.200 138.443 C 139.200 138.640,139.544 138.800,139.965 138.800 C 140.757 138.800,140.806 138.634,141.441 133.800 C 141.586 132.700,141.951 131.314,142.252 130.720 C 142.553 130.126,142.800 129.079,142.800 128.394 C 142.800 127.708,143.013 126.754,143.274 126.274 C 143.534 125.793,143.883 124.680,144.048 123.800 C 144.548 121.134,145.792 117.248,146.311 116.729 C 146.580 116.460,146.806 115.781,146.813 115.220 C 146.820 114.659,147.090 113.851,147.413 113.424 C 147.736 112.996,148.000 112.319,148.000 111.918 C 148.000 111.517,148.164 110.877,148.365 110.495 C 148.566 110.113,149.207 108.720,149.790 107.400 C 150.373 106.080,151.020 104.730,151.228 104.400 C 151.435 104.070,151.713 103.530,151.845 103.200 C 152.235 102.223,153.959 98.664,154.461 97.800 C 155.104 96.694,155.381 96.164,156.815 93.300 C 157.503 91.925,158.232 90.800,158.433 90.800 C 158.635 90.800,158.800 90.440,158.800 90.000 C 158.800 89.560,158.935 89.200,159.100 89.200 C 159.265 89.199,159.924 88.254,160.564 87.100 C 161.205 85.945,162.240 84.344,162.864 83.542 C 163.489 82.741,164.000 81.949,164.000 81.784 C 164.000 81.618,164.630 80.714,165.400 79.774 C 166.170 78.834,166.800 77.954,166.800 77.818 C 166.800 77.531,174.715 67.196,175.391 66.600 C 175.641 66.380,176.313 65.570,176.885 64.800 C 177.457 64.030,178.616 62.652,179.462 61.737 C 180.308 60.823,182.080 58.859,183.400 57.373 C 184.720 55.887,186.385 54.045,187.100 53.280 C 187.815 52.514,188.400 51.733,188.400 51.544 C 188.400 51.173,188.307 51.175,184.400 51.614 "
                stroke="none" fill="#049c2e" fill-rule="evenodd"></path>
        </g>
    </svg>